<svg width="706" height="352" viewBox="0 0 706 352" fill="none" xmlns="http://www.w3.org/2000/svg">
    <g clip-path="url(#clip0_2004_7321)">
    <path d="M0 -8H705.655H706V310.03V310.956V502.742V503H0V502.752V320.702V319.393V-8ZM229.288 193.029C228.103 193.924 227.183 194.824 226.346 195.907C224.503 198.294 212.695 216.315 212.798 217.763C212.809 217.913 212.878 218.059 212.917 218.206C215.012 218.644 222.652 218.163 223.466 219.6C223.78 220.154 223.67 246.342 223.422 248.991L222.974 252.516C222.77 251.423 222.574 250.397 222.103 249.343C222.207 258.386 221.377 267.374 221.131 276.396C220.968 282.401 221.426 288.427 221.352 294.439C221.463 298.352 222.798 315.58 220.585 317.783C217.919 318.871 206.304 318.28 202.985 317.634C202.872 317.612 202.764 317.582 202.654 317.554C202.981 318.014 203.205 318.349 203.371 318.859C202.69 319.015 202.579 318.926 201.911 318.799C201.398 317.507 201.876 315.681 201.668 314.275L201.623 313.992C201.557 313.09 201.547 312.457 200.865 311.684L200.47 311.769C199.782 313.408 200.067 318.18 198.371 319.04C196.253 319.261 194.091 318.956 192.03 319.214C191.207 319.122 190.475 319.082 189.786 318.71C187.61 317.535 189.376 313.46 189.05 311.722C188.957 311.225 189.095 311.418 188.551 311.103L188.226 311.255C187.387 313.853 187.913 316.663 187.285 319.318C187.26 319.425 187.231 319.529 187.204 319.636C184.871 319.681 182.412 319.813 180.09 319.611C172.626 318.968 178.76 313.311 176.142 310.765L175.693 310.877C174.726 312.365 175.481 315.793 175.374 317.559C175.33 318.287 175.297 318.926 174.532 319.43C170.328 319.957 163.089 319.639 158.96 318.881C157.086 316.486 159.263 299.994 158.987 295.686L158.962 295.361C157.857 295.219 157.276 294.976 156.283 295.393L155.785 296.21C155.914 299.35 156.54 317.239 155.321 318.652C154.951 319.08 154.664 319.067 154.057 319.065C153.504 319.065 152.994 318.946 152.46 318.854C150.158 318.459 141.368 319.323 140.462 318.017C139.378 316.449 141.705 312.328 139.6 311.192C138.01 312.579 138.694 317.507 138.517 319.353C135.898 319.373 129.162 320.123 127.325 318.565C125.608 317.107 127.006 313.339 125.912 311.284L125.104 311.717L125.854 311.205L125.148 311.458C124.618 313.669 125.306 316.501 124.754 318.305C124.597 318.819 124.386 318.923 123.854 319.239C121.304 319.365 115.539 319.805 113.459 318.712C111.64 316.735 114.037 312.492 111.589 311.086L111.022 311.063C109.574 312.8 111.626 316.061 110.309 318.3C102.911 318.2 95.5184 318.28 88.1519 318.779C87.4134 318.531 87.5477 318.426 87.2718 317.902C88.2607 313.932 86.687 302.063 86.585 297.107C86.5119 291.59 86.4839 286.073 86.5008 280.555C86.5152 277.566 86.7988 274.513 86.4983 271.537L86.4682 271.269C89.213 270.832 91.9697 270.511 94.6676 269.927C91.411 265.212 87.7263 260.482 83.0455 256.436C83.835 252.558 82.9685 241.853 82.2494 237.722L82.6718 237.49C84.1578 236.661 84.9778 236.251 85.2477 234.818C84.899 234.037 84.578 233.602 83.527 233.222C81.38 232.446 73.3803 231.607 71.0944 232.191C70.4227 232.363 69.6849 233.106 69.5039 233.605C69.2814 234.219 69.3278 234.796 69.85 235.321C70.3432 235.817 71.0234 236.279 71.608 236.717C72.0421 238.319 71.8059 242.492 71.19 244.069L70.7455 244.303C68.4343 242.882 62.3453 229.908 58.4863 227.948C56.6849 228.247 55.7956 229.537 54.8698 230.613C50.9912 235.12 24.0533 270.591 24.8796 273.13C25.6057 273.49 26.0895 273.455 26.9383 273.361C28.0989 273.234 29.2663 272.824 30.4231 273.102C30.7551 273.616 32.1984 312.899 32.2125 316.837C32.216 317.768 32.2845 318.809 31.8284 319.691C31.6746 319.989 31.5746 320.096 31.3714 320.352C29.7742 322.558 28.4647 324.016 24.9772 324.818C20.2714 325.901 13.2541 325.325 8.98286 323.616C8.2599 323.325 7.79831 323.119 7.36254 322.597C7.23239 321.8 7.32688 321.407 6.58567 320.794L5.07314 320.533C3.38207 320.762 1.71203 320.714 0 320.702V502.752V503H706V502.742V310.956L703.648 311.19C702.762 310.907 701.865 310.643 700.894 310.556C697.542 310.256 694.023 310.566 690.641 310.549C685.346 310.522 680.02 310.243 674.725 310.084C675.537 303.961 675.086 296.508 675.339 290.188C675.287 289.282 675.24 288.38 675.232 287.471C674.385 286.79 673.66 286.954 672.426 286.887C672.6 290.72 673.777 309.933 671.378 311.945C670.871 312.37 669.17 312.28 668.468 312.261C663.603 312.112 658.875 311.225 654.112 310.619C653.061 310.604 651.723 310.447 650.911 311.011C647.464 313.406 646.548 315.537 641.189 315.751C636.984 315.92 633.257 315.388 630.103 313.222C629.316 312.683 628.581 312.089 627.843 311.513C627.136 311.341 626.584 311.351 625.844 311.371C625.07 311.659 624.446 311.89 623.599 311.741C622.296 310.258 623.57 306.164 623.319 304.157L623.272 303.804C622.961 297.991 623.222 292.32 623.604 286.514C623.765 283.855 623.999 281.199 624.307 278.548C625.423 278.46 626.538 278.365 627.652 278.262C629.619 278.076 631.457 277.827 632.726 276.63C632.922 276.125 632.994 275.81 632.842 275.283C632.403 273.775 630.535 272.133 629.639 270.683C628.842 269.391 628.3 267.982 627.712 266.633C621.432 266.482 615.293 265.344 609.027 265.337C608.64 261.315 608.638 257.139 609.042 253.117C611.031 251.706 613.776 251.967 615.973 250.864C616.065 249.684 614.982 248.263 614.307 247.212C612.566 244.497 601.347 229.021 599.082 228.422C595.613 230.133 587.073 239.987 584.381 242.949C582.67 244.949 579.243 247.13 578.287 249.294L578.49 249.728C580.596 250.2 583.539 248.993 584.974 250.402C585.411 252.769 584.289 255.251 584.08 257.618C583.983 258.739 584.207 259.909 584.316 261.024C584.428 262.187 584.85 263.605 583.862 264.591C577.43 266.685 567.926 264.365 561.147 265.612C559.6 268.33 555.609 275.393 555.892 278.008C557.298 278.712 560.427 278.473 562.17 278.49C562.049 282.972 561.686 287.443 561.532 291.922C561.453 294.198 562.091 297.43 561.274 299.606C561.274 301.675 561.472 311.585 560.303 312.656C557.514 313.418 554.648 313.075 551.743 313.212C549.833 313.302 547.956 313.595 546.041 313.637L545.376 313.401C545.485 312.723 545.455 312.052 545.44 311.374C545.987 311.774 546.379 311.992 547.092 312.216L547.68 312.03L546.96 311.664C546.526 310.889 546.342 310.181 546.257 309.349C545.515 301.946 546.252 294.161 546.508 286.735C546.707 280.947 546.483 275.082 547 269.311C548.472 269.152 550.673 269.013 551.775 268.203C552.369 267.766 552.696 267.299 552.652 266.678C552.309 261.754 532.872 240.895 528.529 235.629C525.606 232.088 522.562 226.506 518.767 223.64C518.035 224.236 517.327 224.868 516.768 225.558C511.099 232.54 506.008 239.778 500.421 246.797C496.102 252.225 489.735 259.158 486.41 264.686C485.998 265.371 485.71 266.122 486.087 266.859C486.445 267.552 487.378 267.856 488.223 268.174C488.377 268.432 488.687 268.668 488.69 268.951C488.695 269.396 487.89 270.566 487.686 271.055C487.155 272.327 486.862 273.691 486.673 275.008C486.226 278.13 486.189 281.424 486.507 284.552C487.277 292.144 492.203 290.974 493.294 293.247C494.493 295.738 493.269 302.078 493.681 305.213C493.664 307.406 494.396 310.407 493.167 312.42C492.74 313.12 492.171 313.508 491.178 313.786C490.234 313.694 489.738 313.547 489.035 313.061C485.61 310.688 491.903 308.927 491.585 306.385C491.262 303.817 484.272 298.205 481.436 296.613C478.414 298.419 476.288 300.6 474.031 302.893C473.519 302.639 473.671 302.759 473.323 302.426C468.421 297.75 466.226 298.073 458.751 298.006C457.701 297.996 456.668 298.083 455.719 297.706L455.466 296.926C455.94 296.146 456.32 295.385 456.414 294.528C456.787 291.137 454.889 287.058 451.597 284.572C450.377 283.653 448.642 283.007 446.841 283.029C446.069 283.039 446.014 283.131 445.542 283.523C447.606 285.913 449.481 288.087 450.119 290.924C450.357 291.98 450.633 293.515 449.523 294.384C448.922 294.856 447.924 295.053 447.062 295.085C445.093 295.157 442.786 294.633 440.789 294.481C438.475 294.307 436.138 294.345 433.814 294.307C424.551 294.153 429.98 288.653 425.142 285.23C424.099 284.495 422.373 283.799 420.881 283.871C419.262 283.951 418.522 285.719 417.531 286.492C416.749 287.101 415.917 287.235 414.807 287.27C414.407 287.284 414.012 287.299 413.612 287.317C412.8 287.354 412.919 287.424 412.388 287.826C412.01 288.892 412.189 289.88 412.313 290.961C412.227 291.001 412.147 291.048 412.058 291.083C411.578 291.259 411.218 291.262 410.697 291.306C408.233 291.518 405.775 292.027 404.188 293.485C399.892 297.44 400.225 305.128 401.198 309.848C401.605 311.831 402.509 314.275 404.814 315.55C406.249 316.342 408.032 316.963 409.746 317.358C409.699 317.53 409.696 317.716 409.577 317.867C404.685 318.064 399.075 317.93 394.334 318.859C391.941 318.938 390.838 318.816 388.861 317.798L388.422 317.726C388.198 317.333 387.97 316.976 387.679 316.605C387.592 316.491 387.5 316.382 387.409 316.27C386.601 311.878 387.87 306.703 388.213 302.272C388.476 298.878 388.325 295.487 388.792 292.101C389.033 292.124 389.276 292.141 389.517 292.168C392.067 292.449 394.873 292.36 397.416 292.019C398.968 291.811 400.572 291.371 401.474 290.377C403.567 288.072 400.957 283.67 400.227 281.168L399.847 280.975C399.398 281.079 396.756 284.475 395.33 285.287C391.782 287.312 386.323 287.441 381.985 287.053C378.945 286.78 376.457 285.891 374.622 284.077C370.87 280.366 371.53 271.758 372.467 267.267C372.747 265.918 372.849 264.671 374.483 263.829C374.632 263.752 374.786 263.68 374.94 263.605L375.233 262.495C374.264 260.733 373.279 258.967 372.601 257.134C371.337 253.708 368.675 242.209 366.318 240.188C365.7 240.16 365.772 240.06 365.394 240.356C363.442 241.881 361.841 249.691 360.738 252.19C357.502 259.526 353.671 266.884 349.658 274.014C349.871 274.64 349.749 274.799 350.479 275.209C354.16 277.271 356.104 278.992 356.665 282.401C356.894 283.797 356.621 287.836 356.931 288.666C357.018 288.899 357.423 289.272 357.654 289.456C358.955 289.731 360.485 289.957 361.22 290.879C362.553 292.553 361.322 295.815 361.212 297.733C361.22 302.197 360.758 306.694 360.467 311.158C360.331 313.237 360.514 315.565 360.035 317.597C360.619 318.257 361.103 318.585 361.1 319.38C357.684 320.297 352.431 321.402 348.945 320.352C348.428 319.905 348.148 319.733 348.319 319.095C348.647 317.87 350.656 316.658 351.748 315.714C351.838 312.228 351.604 307.464 348.168 304.763C347.348 304.12 346.305 303.688 345.076 303.693C344.572 303.698 344.562 303.618 344.311 303.849C343.886 304.237 343.752 304.798 343.568 305.268C342.657 305.705 342.006 305.595 340.949 305.563C340.114 305.538 339.615 305.568 338.957 305.968C336.936 307.195 335.639 310.01 333.913 311.627C334.76 313.52 335.307 315.217 335.595 317.204C337.442 318.113 340.73 319.164 341.393 320.712C335.153 320.568 329.088 320.416 322.878 319.907C322.6 315.741 323.076 311.54 323.357 307.377C323.787 301.062 324.241 294.73 324.504 288.41C324.676 284.351 324.395 280.272 324.323 276.21C324.177 268.83 324.114 261.45 324.134 254.071C324.167 244.757 325.2 235.316 324.775 226.029C324.868 224.09 325.005 222.153 325.187 220.218C328.1 219.918 331.428 220.167 334.211 219.483C334.259 219.409 334.318 219.338 334.353 219.261C335.187 217.277 330.72 208.998 329.476 206.769C328.902 204.346 324.534 196.366 322.125 194.976C317.963 192.575 310.362 193.144 305.37 192.98C302.259 192.877 298.956 192.594 295.862 192.852C283.115 192.541 270.363 192.639 257.614 192.685C248.204 192.719 238.677 192.576 229.288 193.029ZM705.655 -8L705.65 215.289L705.655 280.505L705.675 300.056C705.68 303.144 706.072 306.554 705.518 309.61L702.874 309.662C703.912 309.96 704.902 309.98 706 310.03V-8H705.655Z" fill="#FEFDFE"/>
    <path d="M705.655 -8H706V310.03C704.902 309.98 703.912 309.96 702.874 309.662L705.518 309.61C706.072 306.554 705.68 303.144 705.675 300.056L705.655 280.505L705.65 215.289L705.655 -8Z" fill="#FEFDFE" fill-opacity="0.819608"/>
    <path d="M303.051 191.243C302.962 189.012 303.533 186.888 305.708 185.201C308.226 183.247 311.576 182.864 315.105 182.851C318.482 182.839 322.128 182.81 325.43 183.373C329.093 185.698 330.861 188.155 331.202 191.724C331.522 195.066 331.274 198.669 330.829 202.003C330.703 202.955 330.067 203.947 330.104 204.86C328.264 201.673 327.295 197.429 324.422 194.653C319.319 189.72 285.055 192.03 275.797 191.158C275.668 191.145 275.539 191.131 275.41 191.118C284.208 190.492 294.201 191.003 303.051 191.243Z" fill="#8AD8FF"/>
    <path d="M158.963 295.36C159.599 294.404 160.157 293.577 161.631 293.194C163.545 292.702 166.363 293.013 168.157 293.664L167.698 293.803L167.737 293.942C168.688 294.297 169.596 294.297 170.639 294.344C170.036 294.908 169.749 295.018 168.749 295.077C166.208 295.231 163.378 294.248 161.158 295.395C159.448 297.328 159.736 314.312 160.024 317.477C163.889 317.833 169.92 318.744 173.612 317.927C174.685 316.67 174.334 312.673 173.952 311.207C173.144 310.775 172.175 310.835 171.211 310.8L170.709 310.489L170.675 309.766C171.68 309.096 172.881 309.602 173.822 308.81C175.229 307.627 173.906 305.218 176.129 304.54C177.169 304.825 177.893 305.561 178.323 306.291C178.818 307.128 178.614 308.258 178.705 309.155C181.364 309.337 184.036 309.488 186.684 309.744C186.803 307.801 186.603 306.291 188.299 304.681L189.063 304.428C189.939 304.713 190.31 305.094 190.66 305.744C191.251 306.84 190.959 308.405 190.909 309.57C193.415 309.819 195.901 310.092 198.434 310.129C198.57 308.701 198.695 307.292 199.067 305.884C199.772 305.536 200.208 305.27 201.135 305.404C201.739 305.491 202.315 305.797 202.59 306.194C203.222 307.108 203.129 308.763 202.816 309.754C203.937 310.097 204.906 310.417 205.888 310.941L205.958 311.592C205.274 311.99 205.658 311.903 204.883 311.893C204.306 311.885 203.741 311.898 203.165 311.918C202.504 313.652 202.757 315.746 202.654 317.554C202.981 318.014 203.205 318.349 203.371 318.859C202.69 319.015 202.579 318.926 201.911 318.799C201.398 317.507 201.876 315.681 201.668 314.275L201.623 313.992C201.557 313.09 201.547 312.457 200.865 311.684L200.47 311.769C199.782 313.408 200.067 318.18 198.371 319.04C196.253 319.261 194.091 318.955 192.03 319.214C191.207 319.122 190.475 319.082 189.786 318.709C187.61 317.534 189.376 313.46 189.05 311.721C188.957 311.225 189.095 311.418 188.551 311.103L188.226 311.254C187.387 313.853 187.913 316.662 187.285 319.318C187.26 319.425 187.231 319.529 187.204 319.636C184.871 319.681 182.412 319.812 180.09 319.611C172.626 318.968 178.76 313.311 176.142 310.765L175.693 310.877C174.726 312.365 175.481 315.793 175.374 317.559C175.33 318.287 175.297 318.926 174.532 319.43C170.328 319.957 163.089 319.639 158.96 318.881C157.086 316.486 159.263 299.993 158.987 295.686L158.963 295.36Z" fill="#171414"/>
    <path d="M190.535 311.019C193.16 311.148 195.79 311.394 198.409 311.585C198.359 313.632 198.317 315.711 197.852 317.731C196.337 317.748 194.77 317.81 193.26 317.723C192.307 317.666 191.222 317.435 190.675 316.819C189.604 315.614 190.387 312.482 190.535 311.019Z" fill="#FEF9FD"/>
    <path d="M178.145 310.619C180.944 310.745 183.741 310.959 186.534 311.143C186.544 313.334 186.924 316.086 185.883 318.166C183.617 318.238 180.12 318.655 178.428 317.319C176.705 315.96 177.847 312.323 178.145 310.619Z" fill="#FEF9FD"/>
    <path d="M649.947 287.049C648.718 286.105 647.62 285.019 646.639 283.933C645.626 282.813 645.167 281.673 644.884 280.364C644.064 276.563 643.903 262.246 645.023 258.711C645.663 256.694 647.064 254.148 649.684 253.067C652.686 251.828 657.164 252.098 660.392 252.729C659.098 255.462 659.076 258.336 657.847 260.999C656.183 264.601 651.887 262.805 652.877 268.248C653.399 271.115 650.399 275.05 654.03 277.114C655.403 277.894 656.826 278.282 658.46 278.664C658.527 279.757 658.559 280.86 658.703 281.951C660.278 282.497 669.697 285.322 670.26 285.712C670.347 285.772 670.598 286.169 670.655 286.281C671.231 287.404 671.152 288.872 671.1 290.057C670.827 289.14 670.919 288.35 670.248 287.508C663.747 286.867 656.948 287.826 650.384 287.101C650.238 287.086 650.094 287.066 649.947 287.049Z" fill="#A6DCDB"/>
    <path d="M203.854 294.968C208.111 294.749 218.076 295.405 221.352 294.439C221.463 298.352 222.798 315.58 220.585 317.783C217.919 318.871 206.304 318.28 202.985 317.634C202.872 317.612 202.764 317.582 202.654 317.554C202.757 315.746 202.504 313.652 203.165 311.918C203.741 311.898 204.306 311.886 204.883 311.893C205.658 311.903 205.274 311.99 205.958 311.592L205.888 310.942C204.906 310.417 203.937 310.097 202.816 309.754C203.129 308.763 203.222 307.108 202.59 306.194C202.315 305.797 201.739 305.491 201.135 305.404C200.208 305.27 199.772 305.536 199.067 305.884C198.392 304.82 198.11 304.08 198.217 302.898C198.5 299.768 200.583 296.983 203.854 294.968Z" fill="#F3E5B5"/>
    <path d="M347.805 275.462C351.207 267.51 355.752 259.834 359.357 251.932C361.051 248.218 361.543 244.189 363.415 240.534C363.872 239.643 364.356 239.12 365.479 238.611C366.025 238.577 366.31 238.457 366.772 238.721C369.285 240.157 372.727 253.492 373.793 256.336C375.004 259.573 376.82 262.522 377.436 265.881C379.032 261.556 381.853 257.337 384.066 253.152C385.362 250.702 386.294 248.037 387.873 245.687C388.509 244.738 389.318 243.545 390.53 242.924C391.543 243.175 391.993 243.647 392.474 244.333C394.183 246.775 394.461 249.945 395.194 252.62C396.887 258.796 398.534 264.961 399.823 271.189C400.379 273.882 400.493 276.615 401.094 279.305C401.908 282.95 403.873 286.432 403.9 290.159C402.547 291.858 400.721 292.608 398.131 293.115C395.526 293.622 392.7 293.83 390.018 294.039L388.978 312.278C388.884 313.98 389.293 316.166 388.861 317.798L388.422 317.726C388.198 317.333 387.97 316.976 387.679 316.606C387.592 316.491 387.5 316.382 387.409 316.27C386.601 311.878 387.87 306.704 388.213 302.272C388.476 298.878 388.325 295.487 388.792 292.101C389.033 292.124 389.276 292.141 389.517 292.168C392.067 292.449 394.873 292.36 397.416 292.019C398.968 291.811 400.572 291.371 401.474 290.377C403.567 288.072 400.957 283.67 400.227 281.168C399.572 274.608 397.535 267.386 396.321 260.768C396.028 261.243 396.219 261.009 395.725 261.456C393.639 261.094 391.253 260.81 389.105 260.709C386.919 260.604 384.401 261.27 382.348 260.52L382.094 259.715C380.401 262.8 379.229 265.99 377.592 269.073L377.195 269.165C375.635 267.55 375.948 264.405 375.233 262.495C374.264 260.733 373.279 258.967 372.601 257.134C371.337 253.708 368.675 242.209 366.318 240.188C365.7 240.16 365.772 240.06 365.394 240.356C363.442 241.881 361.841 249.691 360.738 252.19C357.502 259.526 353.671 266.884 349.658 274.014C349.871 274.64 349.749 274.799 350.479 275.209C354.16 277.271 356.104 278.992 356.665 282.401C356.894 283.797 356.621 287.836 356.931 288.666C357.018 288.899 357.423 289.272 357.654 289.456C358.955 289.731 360.485 289.958 361.22 290.879C362.553 292.554 361.322 295.815 361.212 297.733C360.519 298.27 360.577 299.877 360.455 300.647L360.095 300.575C360.085 299.333 360.02 298.123 359.876 296.883C359.787 295.154 360.718 292.688 359.3 291.222C356.497 290.318 350.38 290.598 348.376 289.041C345.605 286.892 347.323 278.399 347.805 275.462Z" fill="#171414"/>
    <path d="M357.654 289.456C355.16 289.15 350.959 288.996 349.094 287.752C346.742 284.291 348.642 277.715 349.658 274.014C349.871 274.64 349.749 274.799 350.479 275.209C354.16 277.271 356.104 278.992 356.665 282.401C356.894 283.797 356.621 287.836 356.931 288.666C357.018 288.899 357.423 289.272 357.654 289.456Z" fill="#80CAEF"/>
    <path d="M382.094 259.715C383.905 256.57 387.843 247.083 390.393 245.282L391.166 245.18C392.112 245.674 392.323 246.37 392.494 247.165C393.49 251.763 395.092 256.21 396.321 260.768C396.028 261.243 396.219 261.009 395.725 261.456C393.639 261.093 391.253 260.81 389.105 260.708C386.919 260.604 384.401 261.27 382.348 260.52L382.094 259.715Z" fill="#FEFDFE"/>
    <path d="M382.094 259.715L382.348 260.52C384.401 261.27 386.919 260.604 389.105 260.709C391.253 260.81 393.639 261.094 395.725 261.456C396.219 261.009 396.028 261.243 396.321 260.768C397.535 267.386 399.572 274.608 400.227 281.168L399.847 280.975C399.398 281.079 396.756 284.475 395.33 285.287C391.782 287.312 386.323 287.441 381.985 287.053C378.945 286.78 376.457 285.891 374.622 284.077C370.87 280.366 371.53 271.758 372.466 267.267C372.747 265.918 372.849 264.671 374.483 263.829C374.632 263.752 374.786 263.68 374.94 263.605L375.233 262.495C375.948 264.405 375.635 267.55 377.195 269.165L377.592 269.073C379.228 265.99 380.401 262.8 382.094 259.715Z" fill="#A6DCDB"/>
    <path d="M91.2319 202.47L91.5617 202.456C95.5874 202.306 101.88 201.66 105.069 203.851C109.045 206.581 109.623 210.677 109.712 214.412C109.809 218.526 110.086 223.561 105.723 226.682C102.749 228.809 99.4698 228.811 95.5752 228.761C93.7522 228.726 91.8468 228.623 90.0576 228.361C87.1449 227.935 85.728 227.163 84.0823 225.416C82.6564 225.446 83.052 224.231 81.8039 223.698C80.6618 223.211 82.0495 221.301 81.8039 220.351C81.0311 217.361 81.1244 218.872 81.6963 217.363C82.0241 216.499 81.8168 215.388 81.8039 214.494C81.7599 211.445 82.2469 207.809 84.7414 205.254C86.2793 203.678 88.6352 202.743 91.2319 202.47Z" fill="#17A9C8"/>
    <path d="M86.0052 226.893L86.0055 226.893C86.3276 226.866 86.7869 226.796 87.0908 226.711C87.7781 226.237 88.246 225.89 88.5679 225.511C88.8517 225.177 89.0295 224.807 89.1011 224.265C88.9624 224.031 88.8552 223.86 88.7148 223.713C88.562 223.553 88.355 223.407 87.9916 223.289L88.1447 222.815L87.9916 223.289C87.5667 223.152 87.0622 223.098 86.5119 223.085C86.1153 223.076 85.7206 223.089 85.3274 223.101C85.2334 223.104 85.1394 223.107 85.0454 223.109C84.5857 223.532 84.2702 223.889 84.0738 224.253C83.8682 224.633 83.7797 225.046 83.84 225.596L86.0052 226.893ZM86.0052 226.893C85.5761 226.928 85.2775 226.893 85.0143 226.815M86.0052 226.893L85.0143 226.815M85.0143 226.815C84.7684 226.742 84.5338 226.627 84.2267 226.459M85.0143 226.815L84.2267 226.459M84.2267 226.459C83.9945 226.106 83.8716 225.884 83.84 225.596L84.2267 226.459Z" fill="#FEFDFE" stroke="black"/>
    <path d="M94.9058 216.11L94.9061 216.11C95.4246 216.067 96.1766 215.952 96.6674 215.808C97.7392 215.068 98.4987 214.508 99.0252 213.886C99.5137 213.308 99.8104 212.664 99.918 211.73C99.6828 211.329 99.4949 211.018 99.2406 210.75C98.972 210.467 98.6144 210.219 98.0179 210.025L98.1718 209.551L98.0179 210.025C97.3291 209.802 96.5242 209.718 95.6686 209.698C95.0516 209.684 94.4342 209.704 93.8274 209.723C93.6516 209.728 93.4767 209.734 93.3029 209.738C92.5493 210.426 92.0148 211.02 91.6811 211.64C91.3371 212.279 91.1927 212.972 91.291 213.87L94.9058 216.11ZM94.9058 216.11C94.2196 216.166 93.7273 216.111 93.2862 215.98M94.9058 216.11L93.2862 215.98M93.2862 215.98C92.864 215.855 92.4679 215.655 91.9649 215.376M93.2862 215.98L91.9649 215.376M91.9649 215.376C91.5845 214.8 91.3489 214.399 91.291 213.87L91.9649 215.376Z" fill="white" stroke="black"/>
    <path d="M228.766 191.727C235.998 191.094 243.652 191.253 250.944 191.252C259.099 191.269 267.254 191.224 275.41 191.118C275.539 191.131 275.668 191.146 275.797 191.158C285.055 192.03 319.319 189.72 324.422 194.653C327.295 197.429 328.264 201.673 330.104 204.86C331.52 207.53 337.087 217.506 335.56 219.831C335.073 220.569 334.358 220.992 333.268 221.212C331.187 221.63 328.964 221.148 326.918 221.727C326.702 221.994 326.541 222.166 326.466 222.475C326.605 224.943 326.401 227.4 326.436 229.866C329.381 231.608 330.76 233.178 331.145 235.994C331.671 239.832 331.286 243.92 331.271 247.788L331.14 270.389C331.102 274.088 330.362 278.734 331.567 282.316C332.294 281.106 332.92 279.797 333.834 278.654C339.583 271.463 343.847 276.237 347.805 275.462C347.323 278.399 345.605 286.892 348.376 289.041C350.38 290.598 356.496 290.318 359.3 291.222C360.718 292.688 359.787 295.154 359.876 296.883C360.02 298.123 360.085 299.333 360.095 300.575L360.455 300.647C360.577 299.877 360.519 298.27 361.212 297.733C361.22 302.197 360.758 306.694 360.467 311.158C360.331 313.237 360.514 315.565 360.035 317.597C360.619 318.258 361.103 318.585 361.101 319.38C357.684 320.297 352.431 321.403 348.945 320.352C348.428 319.905 348.148 319.733 348.319 319.095C348.647 317.87 350.656 316.658 351.748 315.714C351.838 312.228 351.604 307.464 348.168 304.763C347.348 304.12 346.305 303.688 345.076 303.693C344.572 303.698 344.562 303.618 344.311 303.849C343.886 304.237 343.752 304.798 343.568 305.268C342.657 305.705 342.006 305.596 340.949 305.563C340.114 305.538 339.615 305.568 338.957 305.968C336.936 307.195 335.639 310.01 333.913 311.627C334.76 313.52 335.307 315.217 335.595 317.204C337.442 318.113 340.73 319.164 341.393 320.712C335.153 320.568 329.088 320.416 322.878 319.907C322.6 315.741 323.076 311.54 323.357 307.377C323.787 301.062 324.241 294.73 324.504 288.41C324.676 284.351 324.395 280.272 324.323 276.21C324.177 268.83 324.114 261.451 324.134 254.071C324.167 244.758 325.2 235.316 324.775 226.029C324.868 224.09 325.005 222.154 325.187 220.218C328.1 219.918 331.428 220.167 334.211 219.483C334.259 219.409 334.318 219.338 334.353 219.261C335.187 217.277 330.72 208.998 329.476 206.769C328.902 204.346 324.534 196.366 322.125 194.976C317.963 192.575 310.362 193.144 305.37 192.98C302.259 192.877 298.956 192.594 295.862 192.852C283.115 192.541 270.364 192.639 257.614 192.685C248.204 192.719 238.677 192.576 229.288 193.029C228.103 193.925 227.183 194.824 226.346 195.907C224.503 198.294 212.696 216.315 212.798 217.763C212.809 217.914 212.878 218.059 212.918 218.206C215.012 218.644 222.652 218.163 223.466 219.6C223.78 220.154 223.67 246.342 223.422 248.991L222.974 252.516C222.77 251.423 222.574 250.397 222.103 249.343C221.879 242.542 222.277 235.752 222.083 228.947C222.012 226.451 222.155 223.659 221.455 221.217C220.608 218.258 214.523 220.87 212.168 219.594C211.493 219.228 211.089 218.763 211.036 218.15C210.889 216.451 223.077 197.74 225.228 195.023C226.24 193.745 227.257 192.729 228.766 191.727Z" fill="#171414"/>
    <path d="M331.594 291.055C332.297 292.72 332.93 294.325 334.432 295.721C336.359 297.512 338.863 298.496 341.969 298.761C345.56 299.067 350.119 298.674 352.955 296.913C355.21 295.51 355.747 293.701 355.928 291.652L355.958 291.284C357.038 291.018 358.173 291.165 359.3 291.222C360.718 292.688 359.787 295.154 359.876 296.883C360.02 298.123 360.085 299.333 360.095 300.575L360.455 300.647C360.577 299.877 360.519 298.27 361.212 297.733C361.22 302.197 360.758 306.693 360.467 311.158C360.331 313.237 360.514 315.565 360.035 317.597C359.891 317.028 359.697 316.523 359.422 315.979C358.9 316.287 358.888 317.666 358.709 318.188C355.923 319.46 352.866 319.358 349.7 319.358C350.802 318.317 351.848 317.574 353.256 316.759C353.358 314.556 353.32 312.278 352.945 310.092C352.176 305.595 348.57 303.839 344.018 301.228C343.588 302.09 343.191 303.444 342.106 303.963C341.577 303.968 340.983 303.956 340.467 304.035C336.958 304.572 334.509 308.79 332.848 310.882C332.731 311.17 332.543 311.451 332.495 311.749C332.396 312.397 334.343 317.736 334.835 318.394C335.083 318.727 335.446 318.886 335.875 319.075L335.657 319.261C334.142 319.323 332.801 319.355 331.298 319.157C331.035 318.841 330.832 318.61 330.745 318.235C330.28 316.23 330.919 313.493 330.946 311.389C331.02 305.981 330.303 297.375 331.276 292.375L331.594 291.055Z" fill="#FEFDFE"/>
    <path d="M359.876 296.883C360.02 298.123 360.085 299.333 360.095 300.575L360.455 300.647C360.577 299.877 360.519 298.269 361.212 297.733C361.22 302.197 360.758 306.693 360.467 311.158C360.331 313.237 360.514 315.564 360.035 317.597C359.891 317.028 359.697 316.523 359.422 315.979C358.9 316.287 358.888 317.666 358.709 318.188C357.756 314.427 359.126 300.967 359.876 296.883Z" fill="#353436"/>
    <path d="M331.567 282.316C332.294 281.106 332.92 279.797 333.834 278.654C339.583 271.463 343.847 276.237 347.805 275.462C347.323 278.398 345.605 286.892 348.376 289.041C350.38 290.598 356.496 290.318 359.3 291.222C358.173 291.165 357.038 291.018 355.958 291.284L355.928 291.652C355.747 293.701 355.21 295.51 352.955 296.913C350.119 298.674 345.56 299.067 341.969 298.761C338.863 298.496 336.359 297.512 334.432 295.721C332.93 294.325 332.297 292.72 331.594 291.055C331.442 289.601 331.364 288.145 331.361 286.686C331.356 285.227 331.424 283.77 331.567 282.316Z" fill="#80CAEF"/>
    <path d="M331.298 319.157C329.123 318.985 326.732 318.965 324.772 318.223C323.556 316.762 325.696 293.597 325.855 289.272C326.111 282.269 325.81 275.229 325.746 268.223C325.577 257.962 325.65 247.702 325.964 237.443C326.079 232.612 325.237 227.191 326.466 222.475C326.605 224.943 326.401 227.4 326.436 229.866C329.381 231.608 330.76 233.178 331.144 235.993C331.671 239.832 331.286 243.92 331.271 247.788L331.14 270.389C331.102 274.088 330.362 278.734 331.567 282.316C331.424 283.77 331.356 285.227 331.361 286.686C331.364 288.145 331.442 289.601 331.594 291.055L331.276 292.375C330.303 297.375 331.02 305.981 330.946 311.389C330.919 313.493 330.28 316.23 330.745 318.235C330.832 318.61 331.035 318.841 331.298 319.157Z" fill="#A6DCDB"/>
    <path d="M660.392 252.729C663.022 248.427 666.968 249.115 669.975 246.069C671.562 244.464 671.812 241.761 674.263 240.686C675.53 240.748 676.178 241.361 676.978 242.037C680.179 244.745 687.318 250.881 689.151 253.912C690.581 256.277 691.378 258.82 692.69 261.215C693.621 262.917 695.362 264.927 695.709 266.735C696.037 268.442 695.414 270.228 695.622 271.954C695.791 273.351 697.502 275.117 697.06 276.446C696.849 277.087 696.226 277.345 695.458 277.601C695.153 277.7 694.835 277.775 694.522 277.867C689.898 279.206 694.455 282.669 685.133 282.651L682.91 285.66L679.009 284.88C678.366 285.65 677.643 286.455 677.34 287.334C675.48 292.727 676.327 302.967 676.531 308.636C681.011 308.832 700.919 309.125 702.873 309.662C703.912 309.96 704.902 309.98 706 310.03V310.956L703.648 311.19C702.762 310.907 701.865 310.643 700.894 310.556C697.542 310.256 694.023 310.566 690.641 310.549C685.346 310.522 680.02 310.243 674.725 310.084C675.537 303.961 675.085 296.508 675.339 290.188C675.287 289.282 675.239 288.38 675.232 287.471C674.385 286.79 673.66 286.954 672.426 286.887C672.6 290.72 673.777 309.933 671.378 311.945C670.871 312.37 669.17 312.28 668.468 312.261C663.603 312.111 658.875 311.225 654.112 310.618C653.061 310.604 651.723 310.447 650.911 311.011C647.464 313.406 646.547 315.537 641.189 315.751C636.984 315.92 633.257 315.388 630.103 313.222C629.316 312.683 628.581 312.089 627.843 311.513C627.136 311.341 626.584 311.351 625.844 311.371C625.069 311.659 624.446 311.89 623.599 311.741C622.296 310.258 623.57 306.164 623.319 304.157L623.272 303.804C622.961 297.991 623.222 292.32 623.604 286.514C623.765 283.855 623.999 281.199 624.307 278.547C625.423 278.46 626.538 278.364 627.652 278.262C629.619 278.075 631.456 277.827 632.725 276.63C632.922 276.125 632.994 275.81 632.842 275.283C632.403 273.775 630.535 272.133 629.639 270.682C628.842 269.391 628.3 267.982 627.712 266.633C621.431 266.482 615.293 265.344 609.027 265.337C608.64 261.315 608.638 257.139 609.042 253.117L609.705 253.904C610.488 254.036 610.133 254.073 610.783 253.855C610.503 255.964 609.271 261.779 611.337 263.394C612.881 264.601 625.521 265.138 628.588 265.344C630.426 269.401 632.899 272.732 635.457 276.54C634.459 277.479 633.508 278.401 632.308 279.216C631.049 279.385 626.487 279.648 625.931 280.334C625.087 281.372 625.223 283.926 625.107 285.17C624.339 293.473 624.478 301.268 624.779 309.57L625.159 309.861C625.79 309.836 626.376 309.804 627.001 309.729C626.147 306.269 626.676 301.432 628.119 298.048C628.144 297.949 628.164 297.85 628.193 297.75C628.827 295.788 629.654 294.742 632.055 293.728C632.134 293.646 632.216 293.567 632.296 293.485C633.903 291.773 633.081 288.258 635.984 287.406C636.815 287.478 637.188 287.692 637.846 288.052C639.018 287.627 639.406 286.827 640.684 286.604C642.495 287.217 641.636 288.33 644.216 288.686C645.018 288.795 645.616 288.859 646.145 289.364C647.941 291.075 645.102 291.595 648.082 294.24C648.234 294.377 648.378 294.518 648.524 294.658C652.579 297.75 652.371 303.31 652.232 307.282L652.224 307.526L651.752 308.298C652.589 308.887 653.675 308.85 654.765 309.123C654.921 309.163 655.075 309.205 655.232 309.242C659.048 310.179 666.806 311.404 670.519 310.042C671.981 308.497 671.135 293.015 671.1 290.057C671.152 288.872 671.231 287.404 670.655 286.281C670.598 286.169 670.347 285.772 670.26 285.712C669.697 285.322 660.278 282.497 658.703 281.951C658.559 280.86 658.527 279.757 658.46 278.664C656.826 278.282 655.403 277.894 654.03 277.114C650.399 275.05 653.399 271.115 652.877 268.248C651.887 262.805 656.183 264.601 657.846 260.999C659.076 258.336 659.098 255.462 660.392 252.729Z" fill="#171414"/>
    <path d="M637.066 292.288C636.205 291.898 635.065 291.602 634.846 290.797C634.685 290.211 634.965 289.642 635.549 289.23C635.753 289.088 636.103 288.984 636.359 288.897C637.151 289.222 637.357 289.567 637.821 290.111L638.39 290.129C638.929 289.56 639.46 289.038 640.088 288.519L640.722 288.477C641.345 289.155 641.521 290.496 642.405 290.824C643.061 290.588 643.421 290.323 643.91 289.933C644.685 289.98 644.72 290.032 645.316 290.402C645.47 290.988 645.435 291.229 644.941 291.768C644.534 292.211 643.878 292.556 643.267 292.842C641.29 292.449 639.103 292.484 637.066 292.288Z" fill="#FEF9FD"/>
    <path d="M648.524 294.657C652.579 297.75 652.371 303.31 652.232 307.282L652.224 307.526L651.752 308.298C652.589 308.887 653.674 308.85 654.765 309.123C651.616 308.947 648.584 308.989 645.43 309.108C646.987 307.6 648.318 306.378 649.294 304.627C649.478 303.953 649.597 303.476 649.371 302.791C649.031 302.525 648.869 302.264 648.338 302.217C646.483 302.055 643.714 303.819 642.234 304.552C642.159 303.68 641.953 302.684 642.207 301.827C642.542 300.699 644.7 300.667 645.84 300.143C647.754 299.263 648.186 296.155 648.524 294.657Z" fill="#8AD8FF"/>
    <path d="M637.066 292.288C639.103 292.484 641.29 292.449 643.267 292.842L643.2 293.527C643.714 293.813 643.63 293.835 644.335 293.868C645.388 294.19 646.083 294.384 646.783 295.082L646.838 295.666C645.954 296.314 645.418 296.379 644.183 296.521C644.762 297.288 645.658 297.708 645.579 298.665C645.418 298.838 645.356 299.094 645.095 299.184C643.95 299.566 640.041 298.319 637.95 298.893C637.414 299.042 636.912 299.084 636.349 299.144C634.245 298.317 636.301 297.708 635.629 296.585C634.829 296.312 634.141 296.044 633.408 295.676C633.187 295.062 633.175 294.605 633.622 294.024C634.042 293.478 634.543 293.291 635.301 293.07C635.882 292.901 636.197 292.817 636.709 292.521C636.835 292.449 636.947 292.365 637.066 292.288Z" fill="#8AD8FF"/>
    <path d="M628.119 298.049C628.144 297.949 628.164 297.85 628.193 297.75C628.827 295.788 629.654 294.742 632.055 293.729C631.727 295.231 632.356 297.495 633.575 298.764C637.076 302.418 638.628 298.093 638.449 304.661C635.959 303.216 633.369 301.755 630.563 300.642C630.97 302.567 631.583 304.319 632.363 306.177C633.615 307.069 634.903 307.911 636.222 308.748C633.172 309.034 629.989 309.208 627.001 309.729C626.147 306.269 626.676 301.432 628.119 298.049Z" fill="#8AD8FF"/>
    <path d="M625.844 311.371C628.864 310.564 637.285 310.745 638.559 309.92C638.728 307.63 632.989 306.075 632.75 303.65L633.244 303.526C636.334 304.241 638.623 307.073 641.039 308.661C642.505 306.594 643.861 304.825 646.816 303.675C647.543 303.389 647.218 303.419 647.943 303.563C648.144 306.194 642.89 308.375 642.48 311.026C643.903 311.391 648.042 310.34 649.93 310.273C651.375 310.221 652.706 310.395 654.112 310.618C653.061 310.604 651.723 310.447 650.911 311.011C647.464 313.406 646.547 315.537 641.189 315.751C636.984 315.92 633.257 315.388 630.103 313.222C629.316 312.683 628.581 312.089 627.843 311.513C627.136 311.341 626.584 311.351 625.844 311.371Z" fill="#8AD8FF"/>
    <path d="M662.592 251.688C664.623 249.939 667.757 249.696 669.684 248.191C671.845 246.499 672.418 243.823 674.601 242.161C676.985 242.738 686.732 252.684 688.1 254.707C689.898 257.365 690.678 260.259 692.168 262.991C692.786 264.124 693.998 265.317 694.239 266.521C695.046 270.541 693.728 271.972 696.032 276.279C694.065 276.654 692.632 276.935 691.52 278.264C690.767 279.166 690.196 280.189 689.6 281.148C687.052 281.156 685.423 281.024 683.544 282.51C683.032 282.915 682.59 283.379 682.155 283.829C681.42 284.115 680.996 284.075 680.179 284.015L680.261 283.404C680.646 283.081 681.078 282.743 681.386 282.381C682.796 280.731 682.106 261.379 681.398 258.612C678.791 248.419 667.045 253.936 662.592 251.688Z" fill="#FEFDFE"/>
    <path d="M662.592 251.688C667.045 253.937 678.791 248.419 681.398 258.612C682.106 261.379 682.796 280.731 681.386 282.381C681.078 282.743 680.646 283.081 680.261 283.404L680.179 284.015C679.282 283.591 679.243 283.489 678.197 283.566C677.062 284.269 676.456 285.215 675.736 286.144C675.642 287.451 675.716 288.912 675.339 290.189C675.287 289.282 675.24 288.38 675.232 287.471C674.385 286.79 673.66 286.954 672.426 286.887C672.366 286.162 672.381 285.377 672.081 284.679C672.014 284.525 664.107 282.557 659.853 281.183L660.288 278.255C658.289 277.638 655.17 276.955 654.047 275.492C652.686 273.723 654.107 271.309 654.822 269.508C654.345 268.37 654 267.21 653.635 266.05C662.627 260.502 658.058 258.478 662.592 251.688Z" fill="#A6DCDB"/>
    <path d="M28.949 274.712C27.452 274.752 25.7493 274.866 24.2642 274.742C23.4008 274.67 23.0613 274.565 22.5444 274.071C22.8787 269.88 48.8225 235.668 53.4819 230.044C54.4909 228.826 55.7233 227.009 57.8259 226.717C62.5606 226.059 66.8169 239.021 69.9454 240.445L70.1766 240.091C70.0718 238.368 70.087 237.773 68.3712 236.517C68.4142 234.772 68.0688 232.397 69.3484 230.858C69.6238 230.794 69.7872 230.748 70.0606 230.713C72.5139 230.396 83.9226 231.287 85.681 232.32C86.6438 232.886 86.3687 236.361 86.3875 237.364L83.9422 238.631C84.2482 242.999 83.7158 252.265 85.315 255.889C86.9992 259.705 94.488 265.401 95.8019 269.55C95.9142 269.902 96.0577 270.422 95.7309 270.727C94.5633 271.818 89.9761 272.141 88.032 272.479C88.0891 272.839 88.0652 273.507 88.245 273.82C89.2508 275.571 93.8329 276.406 94.9437 279.946C96.4652 284.793 95.6902 290.524 95.7063 295.51C95.7292 302.592 95.9435 309.717 95.5258 316.794C100.046 316.797 104.834 316.588 109.314 316.968C109.442 315.686 109.677 314.034 109.229 312.792C108.816 311.644 107.809 311.076 106.468 310.489L106.197 310.373C106.091 309.722 105.972 310.002 106.484 309.518C107.218 309.52 107.913 309.498 108.642 309.436C109.619 308.286 108.519 306.885 109.668 305.672C110.456 305.332 110.887 305.24 111.805 305.218C114.105 306.177 113.139 308.117 114.557 309.401C114.887 309.699 115.571 309.635 116.064 309.679C116.884 309.61 117.702 309.536 118.519 309.458L118.82 309.133C117.331 307.533 116.773 305.896 116.469 304.01C115.846 300.14 115.795 291.975 119.253 289.011C122.557 286.181 127.803 286.445 132.434 286.246L133 285.734C132.31 284.89 130.997 283.643 130.905 282.641C130.792 281.404 132.645 280.284 133.701 279.442C133.13 276.386 132.611 273.678 134.172 270.705C135.338 268.481 136.587 267.714 139.456 266.785C139.492 265.431 139.566 264.109 140.019 262.788C140.325 261.896 140.551 261.57 141.646 261.098C149.431 261.136 146.576 257.978 150.169 256.746C151.686 256.224 153.089 257.576 154.43 256.662C156.16 255.479 155.625 253.39 158.124 252.525C162.008 252.796 162.99 258.704 164.971 260.778C167.16 263.068 170.677 264.065 173.38 265.826C174.061 266.268 173.934 266.392 173.939 267.026C176.691 271.04 177.068 272.285 176.902 276.761C177.086 278.898 179.029 280.408 180.956 281.899C179.684 282.614 178.221 283.238 177.869 284.46C177.65 285.22 177.986 285.938 178.655 286.527C179.702 287.451 181.31 288.064 181.967 289.185C181.846 289.848 181.689 290.136 180.962 290.578C179.326 291.577 176.734 292.283 174.727 292.779C173.654 292.409 172.62 291.915 171.395 292.037C170.555 292.75 170.643 293.428 170.639 294.344C169.596 294.297 168.688 294.297 167.737 293.942L167.698 293.803L168.157 293.664C166.363 293.013 163.545 292.702 161.631 293.194C160.157 293.577 159.599 294.404 158.962 295.361C157.857 295.219 157.276 294.975 156.283 295.393L155.785 296.21C155.913 299.35 156.54 317.239 155.321 318.652C154.951 319.08 154.664 319.067 154.057 319.065C153.504 319.065 152.994 318.945 152.46 318.854C150.158 318.459 141.368 319.323 140.462 318.016C139.378 316.449 141.705 312.328 139.6 311.192C138.01 312.578 138.694 317.507 138.517 319.353C135.898 319.373 129.162 320.123 127.325 318.565C125.608 317.107 127.005 313.339 125.912 311.284L125.104 311.716L125.854 311.205L125.148 311.458C124.618 313.669 125.306 316.501 124.754 318.305C124.597 318.819 124.386 318.923 123.854 319.239C121.304 319.365 115.539 319.805 113.459 318.712C111.64 316.735 114.037 312.492 111.589 311.085L111.022 311.063C109.574 312.8 111.626 316.061 110.309 318.3C102.911 318.2 95.5183 318.28 88.1519 318.779C87.4134 318.531 87.5477 318.426 87.2718 317.902C88.2607 313.932 86.687 302.063 86.585 297.107C86.5119 291.59 86.4839 286.073 86.5008 280.555C86.5152 277.566 86.7988 274.513 86.4983 271.537L86.4682 271.269C89.213 270.832 91.9697 270.511 94.6676 269.927C91.411 265.212 87.7263 260.482 83.0455 256.436C83.835 252.558 82.9685 241.853 82.2494 237.722L82.6718 237.49C84.1578 236.661 84.9778 236.251 85.2477 234.818C84.899 234.037 84.5779 233.602 83.527 233.222C81.38 232.446 73.3803 231.606 71.0944 232.191C70.4227 232.363 69.6849 233.106 69.5039 233.605C69.2814 234.219 69.3278 234.796 69.85 235.321C70.3432 235.817 71.0234 236.279 71.608 236.717C72.042 238.319 71.8059 242.492 71.19 244.069L70.7455 244.303C68.4343 242.882 62.3453 229.908 58.4862 227.948C56.6849 228.247 55.7956 229.537 54.8698 230.613C50.9912 235.12 24.0533 270.591 24.8796 273.129C25.6057 273.49 26.0895 273.455 26.9383 273.36C28.0989 273.234 29.2663 272.824 30.4231 273.102C30.7551 273.616 32.1984 312.899 32.2125 316.836C32.216 317.768 32.2845 318.809 31.8284 319.691C31.6746 319.989 31.5746 320.096 31.3714 320.352C29.7742 322.558 28.4647 324.016 24.9772 324.818C20.2714 325.901 13.2541 325.325 8.98286 323.616C8.2599 323.325 7.79831 323.119 7.36254 322.597C7.23239 321.8 7.32688 321.407 6.58567 320.794L5.07314 320.533C3.38207 320.761 1.71203 320.714 0 320.702V319.393L2.95236 319.42C4.72993 319.241 6.51497 319.114 8.29998 318.98C6.66737 317.559 5.25792 315.91 4.33404 314.188L5.57924 311.878C5.01781 309.702 4.78913 307.133 5.51221 304.974C6.15901 303.044 7.68395 301.328 10.0642 300.297C15.6539 297.875 24.181 299.233 30.0709 300.331C29.8916 291.833 29.9746 283.176 28.949 274.712Z" fill="#171414"/>
    <path d="M110.62 306.701C111.283 306.795 111.616 306.927 112.155 307.22C112.813 307.983 112.63 308.934 112.609 309.806C111.508 309.62 111.151 309.66 110.391 309.029C110.119 308.224 110.405 307.493 110.62 306.701Z" fill="#FEFDFE"/>
    <path d="M176.902 276.761C176.592 274.926 173.705 273.492 172.793 271.709C172.029 270.213 172.999 268.37 173.939 267.026C176.691 271.04 177.068 272.285 176.902 276.761Z" fill="#80CAEF"/>
    <path d="M128.089 311.406C131.24 311.518 134.363 311.481 137.514 311.428C137.541 313.555 137.623 315.671 137.277 317.785C136.969 317.814 136.662 317.838 136.354 317.86C134.346 317.994 130.301 318.565 128.755 317.388C127.187 316.196 127.959 312.974 128.089 311.406Z" fill="#FEF9FD"/>
    <path d="M113.868 311.038C116.996 311.184 120.126 311.292 123.259 311.361C123.343 313.52 123.523 315.701 123.289 317.855C121.047 317.92 116.373 318.441 114.715 317.187C113.081 315.95 113.779 312.675 113.868 311.038Z" fill="#FEF9FD"/>
    <path d="M5.07312 320.533C6.39048 320.396 7.98977 320.55 9.2153 320.267C9.93121 320.101 9.97693 319.969 10.2894 319.517C9.83069 318.039 7.79481 316.486 6.53022 315.271C6.589 313.359 7.35753 310.507 8.44501 308.773C9.58206 308.564 10.6864 308.73 11.8324 308.832C13.3383 308.964 14.3417 308.855 15.7788 308.529C15.9349 308.494 16.09 308.455 16.2456 308.42C18.3723 309.379 20.3517 309.933 21.8185 311.493C25.8657 315.803 18.954 317.316 18.2163 319.745C20.3133 321.37 27.6758 319.877 30.8971 320.287C31.0555 320.307 31.2132 320.329 31.3714 320.352C29.7742 322.558 28.4647 324.016 24.9772 324.818C20.2714 325.901 13.254 325.325 8.98284 323.616C8.25988 323.325 7.79829 323.119 7.36252 322.597C7.23237 321.8 7.32686 321.407 6.58564 320.794L5.07312 320.533Z" fill="#8AD8FF"/>
    <path d="M144.761 290.946C146.617 291.756 149.864 294.049 151.971 293.679C152.553 293.577 153.149 293.296 153.689 293.11C153.889 293.04 154.092 292.976 154.294 292.909C154.73 300.568 154.934 309.749 154.378 317.381C150.288 317.271 146.196 317.208 142.103 317.189C142.002 315.388 141.606 313.294 142.154 311.543C143.174 310.897 144.116 311.61 145.161 310.877L145.158 310.263C144.361 309.722 143.263 309.772 142.228 309.702C142.446 307.598 143.548 305.685 143.883 303.573C144.518 299.569 144.096 295.326 143.911 291.314L144.761 290.946Z" fill="#FEFDFE"/>
    <path d="M5.57921 311.878C5.01779 309.702 4.7891 307.133 5.51219 304.975C6.15898 303.044 7.68392 301.328 10.0642 300.297C15.6539 297.875 24.181 299.234 30.0709 300.332C30.1901 304.214 31.3503 315.498 30.013 318.243C27.0035 319.003 23.6572 319.018 20.5423 319.713C22.6353 317.873 24.6787 316.265 24.3236 313.702C24.1287 312.295 23.3359 310.837 22.6725 309.511C20.5295 308.835 18.617 308.072 16.6464 307.166L16.0799 307.245C13.4054 307.615 8.38928 306.726 6.80484 308.301C5.8781 309.22 5.76809 310.114 5.72754 311.217C5.71279 311.62 5.73586 311.451 5.57921 311.878Z" fill="#8AD8FF"/>
    <path d="M88.032 272.479C88.0891 272.839 88.0653 273.507 88.2451 273.82C89.2508 275.571 93.833 276.406 94.9437 279.946C96.4652 284.793 95.6902 290.524 95.7064 295.51C95.7292 302.592 95.9435 309.717 95.5258 316.794C100.046 316.797 104.834 316.588 109.314 316.968C103.933 317.815 95.2338 316.854 89.1934 317.169C87.587 306.823 87.8442 296.148 87.7919 285.739C87.7702 281.464 87.2552 276.704 88.032 272.479Z" fill="#F3E5B5"/>
    <path d="M154.927 258.237C156.142 256.965 156.656 254.739 158.517 253.951C161.139 255.268 162.3 259.32 164.035 261.349C164.9 262.363 166.123 263.26 167.232 264.137C167.034 264.164 166.836 264.194 166.637 264.219C161.653 264.857 155.826 263.215 152.273 266.899C151.166 268.047 150.504 269.413 150.141 270.779C149.069 274.816 148.846 285.526 149.935 289.572C150.184 290.501 150.934 291.277 151.64 292.054C150.799 292.439 150.449 292.218 149.686 291.845C143.454 288.802 143.464 289.473 136.352 288.976C135.075 286.743 133.735 284.579 132.214 282.425C133.159 281.645 134.198 280.917 135.203 280.177C134.608 275.529 134.468 273.606 136.745 269.04C138.219 268.598 139.755 268.236 141.256 267.841C141.078 266.775 140.849 265.652 140.894 264.579C141.032 261.248 144.627 263.21 146.842 261.876C148.367 260.957 148.844 259.26 150.491 258.363C151.383 257.876 153.816 258.184 154.927 258.237Z" fill="#FEFDFE"/>
    <path d="M133 285.734C133.818 287.416 134.426 289.55 136.62 290.581C139.082 290.762 142.476 290.278 144.761 290.946L143.911 291.314C144.096 295.326 144.518 299.569 143.883 303.573C143.548 305.685 142.446 307.598 142.228 309.702C141.993 308.693 142.431 307.526 142.101 306.567C141.813 305.73 140.979 305.198 139.967 304.798C139.476 304.811 139.167 304.721 138.806 305.004C137.536 306.005 137.734 308.651 137.613 309.965L128.228 309.926C128.129 308.996 128.13 307.973 127.553 307.121C127.129 306.495 126.498 306.169 125.613 305.931C125.008 306.048 124.756 306.028 124.309 306.378C123.068 307.344 123.326 308.666 123.3 309.901C120.876 309.883 118.482 309.806 116.064 309.68C116.883 309.61 117.702 309.536 118.519 309.458L118.82 309.133C117.331 307.533 116.773 305.896 116.469 304.011C115.846 300.14 115.795 291.975 119.253 289.011C122.557 286.182 127.803 286.445 132.434 286.246L133 285.734Z" fill="#8AD8FF"/>
    <path d="M167.232 264.137C168.824 265.165 170.499 265.978 172.29 266.807C171.714 268.653 171.222 270.476 171.262 272.379C172.159 273.358 173.306 274.29 174.099 275.298C175.807 277.474 176.98 279.777 178.903 281.876C177.609 282.728 176.657 283.287 176.508 284.619C176.29 286.557 181.295 288.681 179.372 290.047C178.645 290.564 177.468 290.834 176.544 291.125L172.79 290.742C171.919 290.648 171.217 290.598 170.425 290.971C169.463 291.421 169.136 292.213 168.71 292.939C168.431 293.416 168.575 293.212 168.157 293.664C166.363 293.013 163.545 292.703 161.631 293.194C160.157 293.577 159.599 294.404 158.962 295.361C157.857 295.219 157.276 294.976 156.283 295.393L155.785 296.21C156.025 294.871 156.267 293.453 155.543 292.163C155.2 291.55 154.799 291.416 153.985 291.205C152.912 291.356 152.474 291.582 151.639 292.054C150.934 291.277 150.184 290.502 149.934 289.572C148.846 285.526 149.069 274.816 150.141 270.779C150.504 269.413 151.166 268.047 152.273 266.899C155.826 263.215 161.653 264.857 166.637 264.219C166.836 264.194 167.034 264.164 167.232 264.137Z" fill="#80CAEF"/>
    <path d="M229.288 193.029C238.677 192.576 248.204 192.719 257.614 192.685C270.363 192.639 283.115 192.541 295.862 192.851C298.956 192.594 302.259 192.877 305.37 192.979C310.362 193.144 317.963 192.575 322.125 194.976C324.534 196.366 328.902 204.346 329.476 206.769C330.72 208.998 335.187 217.277 334.353 219.261C334.318 219.338 334.259 219.409 334.211 219.483C331.428 220.167 328.1 219.918 325.187 220.218C325.005 222.153 324.868 224.09 324.775 226.029C325.2 235.316 324.167 244.757 324.134 254.071C324.114 261.45 324.177 268.83 324.323 276.21C324.395 280.271 324.676 284.351 324.504 288.41C324.241 294.73 323.787 301.062 323.357 307.377C323.076 311.54 322.6 315.741 322.878 319.907C329.088 320.416 335.153 320.568 341.393 320.712C340.73 319.164 337.442 318.113 335.595 317.204C335.307 315.217 334.76 313.52 333.913 311.627C335.639 310.01 336.936 307.195 338.957 305.968C339.615 305.568 340.114 305.538 340.949 305.563C342.006 305.595 342.657 305.705 343.568 305.268C343.752 304.798 343.886 304.237 344.311 303.849C344.562 303.618 344.572 303.697 345.076 303.693C346.305 303.688 347.348 304.12 348.168 304.763C351.604 307.464 351.838 312.228 351.748 315.714C350.656 316.658 348.647 317.87 348.319 319.095C348.148 319.733 348.428 319.904 348.945 320.352C352.431 321.402 357.683 320.297 361.1 319.38C361.103 318.585 360.619 318.257 360.035 317.597C360.514 315.565 360.331 313.237 360.467 311.158C360.758 306.693 361.22 302.197 361.212 297.733C361.322 295.815 362.553 292.553 361.22 290.879C360.485 289.957 358.955 289.731 357.654 289.456C357.423 289.272 357.018 288.899 356.931 288.666C356.621 287.836 356.894 283.797 356.665 282.4C356.104 278.992 354.16 277.271 350.479 275.209C349.749 274.799 349.871 274.64 349.658 274.014C353.671 266.884 357.502 259.526 360.738 252.19C361.841 249.691 363.442 241.881 365.394 240.356C365.772 240.06 365.7 240.16 366.318 240.187C368.675 242.209 371.337 253.708 372.601 257.134C373.279 258.967 374.264 260.733 375.233 262.495L374.94 263.605C374.786 263.68 374.632 263.752 374.483 263.829C372.849 264.671 372.747 265.918 372.467 267.267C371.53 271.758 370.87 280.366 374.622 284.077C376.457 285.891 378.945 286.78 381.985 287.053C386.323 287.441 391.782 287.312 395.33 285.287C396.756 284.475 399.398 281.079 399.847 280.975L400.227 281.168C400.957 283.67 403.567 288.072 401.474 290.377C400.572 291.371 398.968 291.811 397.416 292.019C394.873 292.36 392.067 292.449 389.517 292.168C389.276 292.141 389.033 292.124 388.792 292.101C388.325 295.487 388.476 298.878 388.213 302.272C387.87 306.703 386.601 311.878 387.409 316.27C387.5 316.382 387.592 316.491 387.679 316.605C387.97 316.976 388.198 317.333 388.422 317.726L388.861 317.798C390.838 318.816 391.94 318.938 394.334 318.859C399.075 317.929 404.685 318.064 409.577 317.867C409.696 317.716 409.699 317.53 409.746 317.358C408.032 316.963 406.249 316.342 404.814 315.55C402.509 314.275 401.605 311.831 401.198 309.848C400.225 305.128 399.892 297.44 404.188 293.485C405.775 292.027 408.233 291.517 410.697 291.306C411.218 291.262 411.578 291.259 412.058 291.083C412.147 291.048 412.227 291.001 412.313 290.961C412.189 289.88 412.01 288.892 412.388 287.826C412.919 287.424 412.8 287.354 413.612 287.317C414.012 287.299 414.407 287.284 414.807 287.269C415.917 287.235 416.749 287.101 417.531 286.492C418.522 285.719 419.262 283.951 420.881 283.871C422.373 283.799 424.099 284.495 425.142 285.23C429.98 288.653 424.551 294.153 433.814 294.307C436.138 294.344 438.475 294.307 440.789 294.481C442.786 294.633 445.093 295.157 447.062 295.085C447.924 295.052 448.922 294.856 449.523 294.384C450.633 293.515 450.357 291.98 450.119 290.924C449.481 288.087 447.606 285.913 445.542 283.523C446.014 283.131 446.069 283.039 446.841 283.029C448.642 283.007 450.377 283.652 451.597 284.572C454.89 287.058 456.787 291.137 456.414 294.528C456.32 295.385 455.94 296.146 455.466 296.926L455.719 297.706C456.668 298.083 457.701 297.996 458.751 298.006C466.226 298.073 468.421 297.75 473.323 302.426C473.671 302.758 473.519 302.639 474.031 302.893C476.288 300.6 478.414 298.419 481.436 296.613C484.272 298.205 491.262 303.817 491.585 306.385C491.903 308.927 485.61 310.688 489.035 313.06C489.738 313.547 490.234 313.694 491.178 313.786C492.171 313.508 492.74 313.12 493.167 312.42C494.396 310.407 493.664 307.406 493.681 305.213C493.269 302.078 494.493 295.738 493.294 293.246C492.203 290.973 487.277 292.143 486.507 284.552C486.189 281.424 486.226 278.13 486.673 275.007C486.862 273.691 487.155 272.327 487.686 271.055C487.89 270.566 488.695 269.396 488.69 268.951C488.687 268.668 488.377 268.432 488.223 268.173C487.378 267.855 486.445 267.552 486.087 266.859C485.71 266.122 485.998 265.371 486.41 264.686C489.735 259.158 496.102 252.225 500.421 246.797C506.008 239.778 511.099 232.54 516.768 225.558C517.327 224.868 518.035 224.236 518.767 223.64C522.562 226.506 525.606 232.088 528.529 235.629C532.872 240.894 552.309 261.754 552.652 266.678C552.696 267.299 552.369 267.766 551.775 268.203C550.673 269.013 548.472 269.152 547 269.311C546.483 275.082 546.707 280.947 546.508 286.735C546.252 294.161 545.515 301.946 546.257 309.349C546.342 310.181 546.526 310.889 546.96 311.664L547.68 312.03L547.092 312.216C546.379 311.992 545.987 311.774 545.44 311.374C545.455 312.052 545.485 312.723 545.376 313.401L546.041 313.637C547.956 313.595 549.833 313.301 551.743 313.212C554.648 313.075 557.514 313.418 560.303 312.656C561.472 311.585 561.274 301.675 561.274 299.606C562.091 297.43 561.453 294.198 561.532 291.922C561.686 287.443 562.049 282.972 562.17 278.49C560.427 278.473 557.298 278.711 555.892 278.008C555.609 275.393 559.6 268.33 561.147 265.612C567.926 264.365 577.43 266.685 583.862 264.591C584.85 263.605 584.428 262.187 584.316 261.024C584.207 259.908 583.983 258.738 584.08 257.618C584.289 255.251 585.411 252.769 584.974 250.401C583.539 248.993 580.596 250.2 578.49 249.728L578.287 249.294C579.243 247.13 582.67 244.949 584.381 242.949C587.073 239.987 595.613 230.133 599.082 228.422C601.347 229.021 612.566 244.497 614.307 247.212C614.982 248.263 616.065 249.684 615.973 250.864C613.776 251.967 611.031 251.706 609.042 253.117C608.638 257.139 608.64 261.315 609.027 265.336C615.293 265.344 621.431 266.482 627.712 266.633C628.3 267.982 628.842 269.391 629.639 270.682C630.535 272.133 632.403 273.775 632.842 275.283C632.994 275.81 632.922 276.125 632.725 276.63C631.456 277.827 629.619 278.075 627.652 278.262C626.538 278.364 625.423 278.46 624.307 278.547C623.999 281.199 623.765 283.855 623.604 286.514C623.222 292.32 622.961 297.991 623.272 303.804L623.319 304.157C623.57 306.164 622.296 310.258 623.599 311.741C624.446 311.89 625.07 311.659 625.844 311.371C626.584 311.351 627.136 311.341 627.843 311.513C628.581 312.089 629.316 312.683 630.103 313.222C633.257 315.388 636.984 315.92 641.189 315.751C646.547 315.537 647.464 313.406 650.911 311.011C651.723 310.447 653.061 310.604 654.112 310.618C658.875 311.225 663.603 312.111 668.468 312.261C669.17 312.28 670.871 312.37 671.378 311.945C673.777 309.933 672.6 290.72 672.426 286.887C673.66 286.954 674.385 286.79 675.232 287.471C675.24 288.38 675.287 289.282 675.339 290.188C675.086 296.508 675.537 303.961 674.725 310.084C680.02 310.243 685.346 310.522 690.641 310.549C694.023 310.566 697.542 310.256 700.894 310.556C701.865 310.643 702.762 310.907 703.648 311.19L706 310.956V502.742V503H0V502.751V320.702C1.71203 320.714 3.38207 320.761 5.07314 320.533L6.58567 320.794C7.32688 321.407 7.23239 321.8 7.36254 322.597C7.79831 323.119 8.2599 323.325 8.98286 323.616C13.2541 325.325 20.2714 325.901 24.9772 324.818C28.4647 324.016 29.7742 322.558 31.3714 320.352C31.5746 320.096 31.6746 319.989 31.8284 319.691C32.2845 318.809 32.216 317.768 32.2125 316.836C32.1984 312.899 30.7551 273.616 30.4231 273.102C29.2663 272.824 28.0989 273.234 26.9383 273.36C26.0895 273.455 25.6057 273.49 24.8796 273.129C24.0533 270.591 50.9912 235.12 54.8698 230.613C55.7956 229.537 56.6849 228.247 58.4862 227.948C62.3453 229.908 68.4343 242.882 70.7455 244.303L71.19 244.069C71.8059 242.492 72.0421 238.319 71.608 236.717C71.0234 236.279 70.3432 235.817 69.85 235.321C69.3278 234.796 69.2814 234.219 69.5039 233.605C69.6849 233.106 70.4227 232.363 71.0944 232.191C73.3803 231.607 81.38 232.446 83.527 233.222C84.5779 233.602 84.899 234.037 85.2477 234.818C84.9778 236.251 84.1578 236.661 82.6718 237.49L82.2494 237.722C82.9685 241.853 83.835 252.558 83.0455 256.436C87.7263 260.482 91.411 265.212 94.6676 269.927C91.9697 270.511 89.213 270.832 86.4682 271.269L86.4983 271.537C86.7988 274.513 86.5152 277.566 86.5008 280.555C86.4839 286.073 86.5119 291.59 86.585 297.107C86.687 302.063 88.2607 313.932 87.2718 317.902C87.5477 318.426 87.4134 318.531 88.1519 318.779C95.5183 318.28 102.911 318.2 110.309 318.3C111.626 316.061 109.574 312.8 111.022 311.063L111.589 311.086C114.037 312.492 111.64 316.735 113.459 318.712C115.539 319.805 121.304 319.365 123.854 319.239C124.386 318.923 124.597 318.819 124.754 318.305C125.306 316.501 124.618 313.669 125.148 311.458L125.854 311.205L125.104 311.716L125.912 311.284C127.006 313.339 125.608 317.107 127.325 318.565C129.162 320.123 135.898 319.373 138.517 319.353C138.694 317.507 138.01 312.579 139.6 311.192C141.705 312.328 139.378 316.449 140.462 318.016C141.368 319.323 150.158 318.459 152.46 318.854C152.994 318.946 153.504 319.065 154.057 319.065C154.664 319.067 154.951 319.08 155.321 318.652C156.54 317.239 155.914 299.35 155.785 296.21L156.283 295.393C157.276 294.975 157.857 295.219 158.962 295.361L158.987 295.686C159.263 299.994 157.086 316.486 158.96 318.881C163.089 319.639 170.328 319.957 174.532 319.43C175.297 318.926 175.33 318.287 175.374 317.559C175.481 315.793 174.726 312.365 175.693 310.877L176.142 310.765C178.76 313.311 172.626 318.968 180.09 319.611C182.412 319.813 184.871 319.681 187.204 319.636C187.231 319.529 187.26 319.425 187.285 319.318C187.913 316.663 187.387 313.853 188.226 311.254L188.551 311.103C189.095 311.418 188.957 311.225 189.05 311.721C189.376 313.46 187.61 317.535 189.786 318.71C190.475 319.082 191.207 319.122 192.03 319.214C194.091 318.955 196.253 319.261 198.371 319.04C200.067 318.18 199.782 313.408 200.47 311.769L200.865 311.684C201.547 312.457 201.557 313.09 201.623 313.992L201.668 314.275C201.876 315.681 201.398 317.507 201.911 318.799C202.579 318.926 202.69 319.015 203.371 318.859C203.205 318.349 202.981 318.014 202.654 317.554C202.764 317.582 202.872 317.611 202.985 317.634C206.304 318.28 217.919 318.871 220.585 317.783C222.798 315.579 221.463 298.351 221.352 294.439C221.426 288.427 220.968 282.4 221.131 276.396C221.377 267.374 222.207 258.386 222.103 249.343C222.574 250.397 222.77 251.422 222.974 252.516L223.422 248.99C223.67 246.342 223.78 220.154 223.466 219.6C222.652 218.163 215.012 218.643 212.917 218.206C212.878 218.058 212.809 217.913 212.798 217.763C212.695 216.315 224.503 198.294 226.346 195.907C227.183 194.823 228.103 193.924 229.288 193.029ZM705.665 502.729C697.03 502.943 688.294 502.751 679.652 502.751L627.386 502.754H471.393L0 502.751V503H706V502.742L705.665 502.729ZM703.648 311.19C703.73 311.23 703.807 311.274 703.894 311.307C704.398 311.495 704.855 311.456 705.404 311.453C706.166 313.036 705.66 348.945 705.66 353.804L705.665 502.729L706 502.742V310.956L703.648 311.19Z" fill="#FEFDFE"/>
    <path d="M567.579 284.41C570.032 283.985 575.289 283.394 577.51 284.311C578.595 284.761 579.002 285.387 579.221 286.239C579.648 287.891 579.263 290.382 578.828 292.034C578.602 290.67 579.196 286.127 578.277 285.349L578.038 285.615C578.22 286.509 578.575 287.58 577.827 288.34C577.775 287.337 577.86 286.671 576.923 285.876C575.103 285.295 572.677 285.625 570.698 285.66C571.222 285.424 571.701 285.195 572.188 284.917C571.1 284.358 568.94 284.482 567.579 284.41Z" fill="#171414"/>
    <path d="M387.409 316.27C387.5 316.382 387.592 316.491 387.679 316.605C387.97 316.976 388.198 317.333 388.422 317.726L388.861 317.798C390.838 318.816 391.94 318.938 394.334 318.859C396.006 318.983 398.673 318.933 400.145 319.447L400.242 319.785C395.618 320.349 391.511 320.128 386.914 320.314C387.153 318.973 387.26 317.616 387.409 316.27Z" fill="#171414"/>
    <path d="M483.521 310.511L483.521 310.511C483.743 310.931 483.814 311.292 483.789 311.625C483.766 311.931 483.659 312.262 483.44 312.639C483.16 312.823 482.955 312.915 482.744 312.978C482.478 313.057 482.18 313.099 481.65 313.17C480.468 313.279 479.838 313.296 478.973 312.971C478.662 312.619 478.585 312.437 478.585 312.181C478.585 310.998 479.471 309.798 480.887 308.806C481.188 308.799 481.467 308.822 481.818 308.854C482.647 309.34 483.175 309.852 483.521 310.511Z" fill="#FEF9FD" stroke="#171414" stroke-width="1.5"/>
    <path d="M578.828 292.034L578.778 293.19C578.314 293.642 578.163 293.803 577.4 293.997C574.631 294.7 569.719 294.774 567.07 293.91C565.485 292.551 566.218 287.59 566.536 285.774C566.66 285.059 566.774 284.823 567.579 284.41C568.94 284.482 571.1 284.358 572.188 284.917C571.701 285.195 571.222 285.424 570.698 285.66C569.65 285.787 568.974 285.715 568.319 286.408C567.313 287.473 567.1 290.469 567.691 291.669C567.904 292.106 568.093 292.3 568.557 292.603C571.11 293.247 574.589 292.882 577.261 292.705C577.519 291.247 577.731 289.809 577.827 288.34C578.575 287.58 578.22 286.51 578.038 285.615L578.277 285.349C579.196 286.127 578.602 290.671 578.828 292.034Z" fill="#171414"/>
    <path d="M703.648 311.19L706 310.956V502.742L705.665 502.729L705.66 353.804C705.66 348.945 706.166 313.036 705.404 311.453C704.855 311.456 704.398 311.495 703.894 311.307C703.807 311.274 703.73 311.23 703.648 311.19Z" fill="#FEFDFE" fill-opacity="0.819608"/>
    <path d="M570.698 285.66C572.677 285.625 575.103 285.295 576.923 285.876C577.86 286.671 577.775 287.337 577.827 288.34C577.731 289.808 577.519 291.247 577.261 292.705C574.589 292.881 571.11 293.247 568.557 292.603C568.093 292.3 567.904 292.106 567.691 291.669C567.1 290.469 567.313 287.473 568.319 286.408C568.974 285.714 569.65 285.786 570.698 285.66Z" fill="#FEF9FD"/>
    <path d="M451.418 318.824C450.896 317.766 449.478 315.808 450.04 314.852L450.3 315.716C451.825 316.364 457.917 315.237 460.017 315.12C465.128 314.842 470.485 315.348 475.655 315.242C473.045 316.141 473.035 317.922 471.187 319.383C469.104 321.032 466.255 321.646 463.248 321.773C458.165 321.986 455.153 321.253 451.418 318.824Z" fill="#8AD8FF"/>
    <path d="M512.281 294.456C514.588 292.66 515.981 290.892 519.723 290.772C523.356 290.658 527.782 290.832 530.6 292.7C534.002 294.956 534.968 298.983 535.035 302.19C535.1 305.228 534.253 310.159 531.164 312.42C530.893 312.616 530.734 312.686 530.404 312.872L529.94 313.143C529.83 313.205 529.719 313.264 529.607 313.326C529.979 311.148 529.587 308.783 529.592 306.579C529.599 303.283 530.203 299.663 529.584 296.416C529.475 295.85 529.336 295.44 528.693 295.095C525.576 293.423 516.07 293.93 512.281 294.456Z" fill="#8AD8FF"/>
    <path d="M529.016 274.257C530.911 274.173 532.989 274.076 534.876 274.2C536.212 274.287 537.419 274.588 538.231 275.403C539.272 276.449 539.284 284.562 539.038 285.998C538.35 286.497 537.928 286.524 537.005 286.718C534.573 286.914 530.406 287.635 528.296 286.726C526.366 284.925 526.813 282.093 526.96 279.939C527.091 278.014 526.922 275.621 529.016 274.257Z" fill="#171414"/>
    <path d="M530.054 275.693C531.742 275.589 533.953 275.457 535.592 275.748C536.148 275.847 536.783 276.006 537.072 276.381C538.261 277.934 537.983 282.701 537.3 284.348C537.042 284.972 536.612 285.019 535.872 285.327C534.198 285.461 531.022 285.973 529.53 285.461C528.993 285.28 528.613 284.698 528.46 284.298C527.588 282.03 528.45 277.708 530.054 275.693Z" fill="#FEF9FD"/>
    <path d="M600.431 248.907L600.43 248.907C599.165 248.015 597.834 247.842 595.984 247.884C595.309 248.448 594.917 248.902 594.691 249.352C594.455 249.825 594.366 250.369 594.44 251.18L600.431 248.907ZM600.431 248.907C601.199 249.449 601.525 250.193 601.511 250.897L601.511 250.898M600.431 248.907L601.511 250.898M601.511 250.898C601.487 252.145 600.614 253.187 599.114 254.265C599.098 254.27 599.087 254.274 599.078 254.278C599.066 254.282 599.056 254.286 599.039 254.292C599.018 254.299 599.003 254.304 598.993 254.307C598.983 254.31 598.979 254.311 598.979 254.311L598.979 254.311M601.511 250.898L598.979 254.311M598.979 254.311L598.977 254.311M598.979 254.311L598.977 254.311M598.977 254.311C597.993 254.491 596.774 254.415 596.066 254.037M598.977 254.311L596.066 254.037M596.066 254.037C594.973 253.448 594.54 252.269 594.44 251.18L596.066 254.037Z" fill="#FEF9FD" stroke="#171414" stroke-width="1.5"/>
    <path d="M442.138 308.705L442.136 308.704C442.034 308.647 441.823 308.555 441.577 308.48C441.359 308.413 441.196 308.385 441.11 308.378C440.373 308.494 439.645 308.69 438.859 308.902C438.795 308.919 438.731 308.936 438.666 308.953C437.801 309.186 436.865 309.429 435.896 309.527L435.895 309.527C435.28 309.59 434.454 309.556 433.617 309.506C433.305 309.487 432.988 309.466 432.668 309.444C432.09 309.406 431.503 309.366 430.914 309.34C430.003 309.299 429.168 309.294 428.5 309.366C428.167 309.402 427.905 309.454 427.711 309.517C427.511 309.582 427.442 309.64 427.433 309.649L442.138 308.705ZM442.138 308.705C442.92 309.142 443.924 309.926 444.767 310.798M442.138 308.705L444.767 310.798M445.802 313.953L445.802 313.953C446.058 313.753 446.175 313.588 446.229 313.466C446.277 313.355 446.299 313.224 446.264 313.032L445.802 313.953ZM445.802 313.953C445.414 314.256 444.604 314.576 443.389 314.856C442.216 315.126 440.804 315.329 439.337 315.479C436.406 315.778 433.346 315.856 431.736 315.852L431.728 315.852M445.802 313.953L431.728 315.852M431.728 315.852L431.72 315.852M431.728 315.852L431.72 315.852M431.72 315.852C431.315 315.858 430.907 315.871 430.503 315.885C429.392 315.922 428.306 315.958 427.365 315.829L427.365 315.829M431.72 315.852L427.365 315.829M427.365 315.829C426.969 315.775 426.824 315.709 426.75 315.663M427.365 315.829L426.75 315.663M444.767 310.798C445.185 311.231 445.545 311.667 445.812 312.072M444.767 310.798L445.812 312.072M445.812 312.072C446.086 312.488 446.223 312.813 446.264 313.032L445.812 312.072ZM426.75 315.663C426.7 315.633 426.649 315.592 426.568 315.507M426.75 315.663L426.568 315.507M426.568 315.507C426.565 315.383 426.562 315.255 426.558 315.124C426.535 314.287 426.508 313.318 426.585 312.357C426.691 311.044 426.975 310.101 427.433 309.649L426.568 315.507Z" fill="#FEF9FD" stroke="#171414" stroke-width="2"/>
    <path d="M512.281 294.456C516.07 293.93 525.576 293.423 528.693 295.095C529.336 295.44 529.475 295.85 529.584 296.416C530.203 299.663 529.599 303.283 529.592 306.579C529.587 308.783 529.979 311.148 529.607 313.326C529.247 313.493 528.941 313.637 528.514 313.704C527.928 313.796 515.089 314.019 513.652 313.952C512.648 313.905 511.908 313.756 511.024 313.416C509.892 312.574 510.031 310.867 509.976 309.752C509.842 306.964 509.775 296.397 512.281 294.456Z" fill="#2D1513"/>
    <path d="M514.215 295.798C519.038 295.358 523.257 295.773 528.01 296.434C528.623 301.462 528.052 306.708 528.233 311.779L524.345 311.761C521.717 311.836 514.044 312.951 512.157 311.791C510.371 307.921 511.779 301.504 512.713 297.482C512.909 296.632 513.222 296.314 514.215 295.798Z" fill="#8AD8FF"/>
    <path d="M295.862 192.852C298.956 192.594 302.259 192.877 305.37 192.98C310.362 193.144 317.963 192.575 322.125 194.976C324.534 196.366 328.902 204.346 329.476 206.769C328.11 207.365 326.699 208.86 325.453 209.676C319.863 210.441 313.307 210.797 307.779 209.679C307.377 209.414 306.982 209.15 306.605 208.867C301.007 204.655 302.259 198.559 302.381 193.205C300.697 193.179 297.258 193.418 295.862 192.852Z" fill="#8AD8FF"/>
    <path d="M492.929 267.428C493.05 267.436 493.169 267.443 493.289 267.451C498.926 267.754 505.387 264.974 510.741 269.16C513.431 271.264 513.058 273.629 514.595 274.578C515.276 276.615 516.463 284.214 514.851 285.814C514.608 286.057 514.359 286.192 514.056 286.378L513.773 286.76C513.488 287.153 513.282 287.543 513.061 287.955C512.127 289.714 510.2 291.662 507.779 292.464C504.615 293.512 499.291 293.202 495.799 293.207C495.769 296.846 496.375 310.298 495.469 313.021C495.298 312.117 495.303 311.193 495.253 310.281C495.365 303.903 495.393 297.524 495.335 291.145C495.231 286.365 494.878 281.583 494.885 276.806C494.888 273.947 495.168 271.09 495.193 268.228C494.684 267.635 493.83 267.625 492.929 267.428Z" fill="#F3E5B5"/>
    <path d="M501.285 274.665C505.703 274.536 510.185 274.334 514.595 274.578C515.276 276.615 516.463 284.214 514.851 285.814C514.608 286.057 514.359 286.191 514.056 286.378C510.932 286.788 505.082 288.094 502.303 286.984C501.856 286.594 501.546 286.271 501.416 285.772C501.004 284.184 501.357 276.851 501.285 274.665Z" fill="#171414"/>
    <path d="M510.083 275.81C511.208 275.738 512.417 275.827 513.547 275.855C513.801 277.264 513.974 278.678 514.066 280.095C514.161 281.514 514.176 282.934 514.111 284.353C512.03 285.103 509.735 285.426 507.473 285.739C506.209 285.95 504.756 286.291 503.48 286.04C502.221 284.452 502.703 278.063 502.864 276.019C505.261 275.902 507.679 275.875 510.083 275.81Z" fill="#F3E5B5"/>
    <path d="M223.422 248.99C223.891 252.342 223.521 255.857 223.441 259.223C223.233 268.024 222.421 276.729 222.77 285.538C223.51 288.38 223.116 291.587 223.06 294.486C226.238 295.418 228.304 297.266 229.603 299.539C231.904 303.558 231.822 317.475 229.406 321.445C228.477 322.975 226.965 324.562 224.738 325.193C220.718 326.336 207.486 326.222 203.579 324.806C201.76 324.147 200.16 322.91 199.516 321.499C199.197 320.801 199.193 320.066 199.206 319.341C196.941 319.393 194.239 319.646 192.03 319.214C194.091 318.956 196.253 319.261 198.371 319.04C200.067 318.18 199.782 313.408 200.47 311.769L200.865 311.684C201.547 312.457 201.557 313.09 201.623 313.992L201.668 314.275C201.876 315.681 201.398 317.507 201.911 318.799C202.579 318.926 202.69 319.015 203.371 318.859C203.205 318.349 202.981 318.014 202.654 317.554C202.764 317.582 202.872 317.612 202.985 317.634C206.304 318.28 217.919 318.871 220.585 317.783C222.798 315.579 221.463 298.352 221.352 294.439C221.426 288.427 220.968 282.4 221.131 276.396C221.377 267.374 222.207 258.386 222.103 249.343C222.574 250.397 222.77 251.422 222.974 252.516L223.422 248.99Z" fill="#F3E5B5"/>
    <path d="M223.422 248.99C223.891 252.342 223.521 255.857 223.441 259.223C223.233 268.024 222.421 276.729 222.77 285.538C222.737 290.973 224.303 317.028 221.938 320.188C218.927 320.456 215.266 319.852 212.224 319.656C208.559 319.418 204.887 319.322 201.207 319.368C201.337 317.587 201.362 315.763 201.623 313.992L201.668 314.275C201.876 315.681 201.398 317.507 201.911 318.799C202.579 318.926 202.69 319.015 203.371 318.859C203.205 318.349 202.981 318.014 202.654 317.554C202.764 317.582 202.872 317.612 202.985 317.634C206.304 318.28 217.919 318.871 220.585 317.783C222.798 315.579 221.463 298.352 221.352 294.439C221.426 288.427 220.968 282.4 221.131 276.396C221.377 267.374 222.207 258.386 222.103 249.343C222.574 250.397 222.77 251.422 222.974 252.516L223.422 248.99Z" fill="#2D1513"/>
    <path d="M373.716 289.505C375.476 290.015 377.195 292.166 378.744 293.175C380.818 293.147 383.309 292.814 385.298 293.257C386.4 294.62 385.067 315.468 384.63 318.2C384.548 318.717 384.429 319.897 383.793 320.195C381.915 321.072 378.166 320.575 376.028 320.354C372.345 319.495 365.998 320.821 363.507 319.559C363.385 319.244 363.276 318.956 363.231 318.63C362.829 315.793 363.847 293.175 365.33 292.009C366.514 291.078 369.02 291.508 370.631 291.324C372.097 291.157 372.685 290.586 373.482 289.754C373.562 289.672 373.636 289.587 373.716 289.505Z" fill="#171414"/>
    <path d="M373.812 291.55C375.64 292.327 376.614 293.917 378.6 294.831C380.49 294.727 382.313 294.814 384.195 294.906C384.342 297.497 383.621 317.885 382.449 318.829C380.152 319.432 377.721 318.958 375.389 318.667C371.808 318.106 368.183 318.675 364.734 318.111C364.314 314.839 365.357 296.185 366.521 293.316C367.776 292.755 369.921 292.998 371.386 292.866C372.424 292.772 372.958 292.303 373.589 291.751C373.666 291.684 373.738 291.617 373.812 291.55Z" fill="#FEFDFE"/>
    <path d="M584.863 298.406C584.828 298.347 584.805 298.282 584.758 298.227C584.56 297.994 584.299 297.785 584.118 297.544C582.503 295.385 583.554 282.187 584.649 279.775C585.488 277.924 587.06 276.324 589.526 275.462C590.74 275.037 592.094 274.826 593.43 274.717C596.613 274.459 613.184 274.327 615.611 275.01C623.788 277.308 620.547 284.192 622.884 288.137L623.301 287.975C623.252 287.555 623.282 287.319 623.443 286.899C623.49 286.77 623.55 286.644 623.604 286.514C623.222 292.32 622.961 297.991 623.272 303.804C623.16 303.919 623.046 304.031 622.936 304.145C619.758 307.498 621.079 310.889 614.091 312C608.176 312.939 602.146 311.938 596.206 311.744C592.568 311.625 588.895 311.794 585.272 311.652C585.161 311.655 585.046 311.669 584.935 311.662C583.906 311.582 583.733 311.471 583.047 310.956C581.883 308.306 583.671 301.089 584.863 298.406Z" fill="#A6DCDB"/>
    <path d="M584.863 298.406C586.089 296.22 587.495 293.719 590.713 292.71C592.196 292.245 593.805 292.308 595.263 292.792C598.193 293.771 600.175 296.307 601.163 298.426C602.931 302.217 602.742 307.613 601.826 311.493C596.705 311.287 590.152 310.514 585.272 311.652C585.161 311.654 585.046 311.669 584.935 311.662C583.906 311.582 583.733 311.471 583.047 310.956C581.883 308.306 583.671 301.089 584.863 298.406Z" fill="#171414"/>
    <path d="M591.597 293.599C593.892 293.676 595.878 294.466 597.381 295.728C601.709 299.363 601.138 305.466 600.716 309.923C598.434 309.868 596.144 309.722 593.864 309.618C590.964 309.558 588.001 309.821 585.101 309.938L584.527 309.486C584.095 308.46 584.17 307.633 584.376 306.569C585.252 302.028 586.189 296.558 591.597 293.599Z" fill="#A6DCDB"/>
    <path d="M518.767 223.64C522.562 226.506 525.606 232.088 528.529 235.629C532.872 240.895 552.309 261.754 552.652 266.678C552.696 267.299 552.369 267.766 551.775 268.203C550.673 269.013 548.472 269.152 547 269.311C546.483 275.082 546.707 280.947 546.508 286.736C546.252 294.161 545.515 301.946 546.257 309.349C546.342 310.181 546.525 310.889 546.96 311.665L547.68 312.03L547.092 312.216C546.379 311.992 545.987 311.774 545.44 311.374C545.455 312.052 545.485 312.723 545.376 313.401C544.705 311.751 544.76 309.667 544.72 307.953C544.502 299.06 545.065 290.069 545.212 281.169C545.259 278.269 544.822 271.463 545.363 269.098C545.795 267.212 548.904 268.042 550.501 267.006C550.978 265.704 550.084 264.363 549.302 263.203C546.858 259.573 544.112 255.966 541.293 252.481C535.547 245.369 528.911 238.774 523.503 231.499C522.659 230.363 520.406 226.588 518.792 226.186L518.844 226.336L519.182 226.109L518.894 225.888L518.536 225.977C512.979 231.666 508.322 238.813 503.542 244.931C500.326 249.043 488.901 262.259 487.671 265.831C487.793 266.216 487.763 266.355 488.166 266.658C489.37 267.56 491.322 267.389 492.929 267.428C493.83 267.625 494.684 267.635 495.193 268.228C495.168 271.09 494.888 273.947 494.885 276.806C494.878 281.583 495.231 286.365 495.335 291.145C495.393 297.524 495.366 303.903 495.253 310.281C495.303 311.193 495.298 312.117 495.469 313.021C495.241 313.771 495.139 314.283 494.332 314.837C492.591 315.289 489.745 314.991 488.051 314.464C487.316 314.236 486.619 313.88 486.261 313.344C485.585 312.333 486.311 310.947 486.929 310.01C487.552 309.064 490.152 307.118 489.879 306.174C489.452 304.689 484.269 299.87 482.526 299.186C481.183 299.112 480.428 299.283 479.419 299.944C477.212 301.392 473.34 305.33 473.013 307.449C473.656 308.221 474.86 308.373 475.921 308.746C476.238 310.927 476.901 313.165 475.655 315.242C470.485 315.349 465.128 314.842 460.017 315.12C457.917 315.237 451.825 316.365 450.3 315.716L450.04 314.852C451.179 313.602 451.932 312.258 452.707 310.882C448.52 305.772 451.661 305.191 450.993 300.424C450.978 300.317 450.958 300.215 450.944 300.111C453.074 298.394 454.02 296.32 455.205 294.213C454.907 292.727 454.758 291.038 453.802 289.687C453.717 289.573 453.628 289.461 453.544 289.344C452.424 287.796 451.132 286.02 449.265 284.882C449.133 285.481 449.891 286.316 450.258 286.887C450.924 287.926 451.261 288.884 451.458 290.015C451.751 291.697 451.982 293.98 450.358 295.361C447.601 297.703 441.584 295.942 438.125 295.713C436.317 295.597 434.44 295.992 432.632 296.061C430.486 296.141 429.25 295.276 427.777 294.27C426.89 293.366 425.805 292.814 425.53 291.669L425.097 292.375C423.151 292.36 419.828 291.048 418.236 291.865C417.752 292.111 417.35 292.298 416.756 292.345C420.041 294.129 421.301 295.604 421.887 298.593C422.589 302.177 423.041 305.779 422.977 309.399C422.932 311.901 422.527 314.579 422.716 317.06C422.406 317.962 422.234 318.625 421.315 319.301C420.399 319.646 419.716 319.721 418.728 319.51C418.129 319.383 417.568 319.167 417.002 318.983L415.944 318.64C410.704 319.333 405.551 319.602 400.242 319.785L400.145 319.448C398.673 318.933 396.006 318.983 394.334 318.859C399.075 317.93 404.685 318.064 409.577 317.868C409.696 317.716 409.699 317.53 409.746 317.358C408.032 316.963 406.249 316.342 404.814 315.55C402.509 314.275 401.605 311.831 401.198 309.849C400.225 305.129 399.892 297.44 404.188 293.485C405.775 292.027 408.233 291.518 410.697 291.307C411.218 291.262 411.578 291.259 412.058 291.083C412.147 291.048 412.227 291.001 412.313 290.961C412.189 289.881 412.011 288.892 412.388 287.826C412.919 287.424 412.8 287.354 413.612 287.317C414.012 287.3 414.407 287.285 414.807 287.27C415.917 287.235 416.749 287.101 417.531 286.492C418.522 285.72 419.262 283.951 420.881 283.871C422.373 283.799 424.099 284.495 425.142 285.23C429.98 288.653 424.551 294.153 433.814 294.307C436.138 294.345 438.475 294.307 440.789 294.481C442.786 294.633 445.093 295.157 447.062 295.085C447.924 295.053 448.922 294.856 449.523 294.384C450.633 293.515 450.357 291.98 450.119 290.924C449.481 288.087 447.606 285.913 445.542 283.524C446.014 283.131 446.069 283.039 446.841 283.029C448.642 283.007 450.377 283.653 451.597 284.572C454.89 287.059 456.787 291.138 456.414 294.529C456.32 295.386 455.94 296.146 455.466 296.926L455.719 297.706C456.668 298.083 457.701 297.996 458.751 298.006C466.226 298.073 468.421 297.751 473.323 302.426C473.671 302.759 473.519 302.639 474.031 302.893C476.288 300.6 478.414 298.419 481.436 296.613C484.272 298.205 491.262 303.817 491.585 306.386C491.903 308.927 485.61 310.688 489.035 313.061C489.738 313.548 490.234 313.694 491.178 313.786C492.171 313.508 492.74 313.12 493.167 312.42C494.396 310.408 493.664 307.407 493.681 305.213C493.269 302.078 494.493 295.738 493.294 293.247C492.203 290.974 487.277 292.144 486.507 284.552C486.189 281.424 486.226 278.13 486.673 275.008C486.862 273.691 487.155 272.327 487.686 271.055C487.89 270.566 488.695 269.396 488.69 268.951C488.687 268.668 488.377 268.432 488.223 268.174C487.378 267.856 486.445 267.553 486.087 266.86C485.71 266.122 485.998 265.371 486.41 264.686C489.735 259.158 496.102 252.225 500.421 246.797C506.008 239.778 511.099 232.54 516.768 225.558C517.327 224.868 518.035 224.236 518.767 223.64Z" fill="#171414"/>
    <path d="M416.756 292.345C415.44 291.753 414.129 291.12 413.458 290.077C413.883 288.238 417.399 288.931 418.884 287.806C419.458 287.371 420.024 286.199 420.454 285.622C421.174 285.317 421.544 285.188 422.43 285.305C423.64 285.461 424.459 286.373 424.963 287.106C426.133 288.81 426.369 289.883 425.53 291.669L425.097 292.375C423.151 292.36 419.828 291.048 418.236 291.865C417.752 292.111 417.35 292.298 416.756 292.345Z" fill="#FEF9FD"/>
    <path d="M488.223 268.174C489.939 268.397 491.675 268.596 493.383 268.852C493.341 279.429 493.996 289.995 494.009 300.565C493.929 302.066 494.044 303.747 493.681 305.213C493.269 302.078 494.493 295.738 493.294 293.247C492.203 290.974 487.277 292.144 486.507 284.552C486.189 281.424 486.226 278.13 486.673 275.008C486.862 273.691 487.155 272.327 487.686 271.055C487.89 270.566 488.695 269.396 488.69 268.951C488.687 268.668 488.377 268.432 488.223 268.174Z" fill="#F3E5B5"/>
    <path d="M453.064 314.365C453.454 313.525 453.909 312.596 453.973 311.707C454.035 310.82 453.549 309.828 453.233 308.976C452.021 305.705 451.842 302.768 453.916 299.643C454.507 298.749 454.986 297.85 455.466 296.926L455.719 297.706C456.668 298.083 457.701 297.996 458.751 298.006C466.226 298.073 468.421 297.75 473.323 302.426C473.671 302.758 473.519 302.639 474.031 302.893C472.657 304.458 470.981 305.956 470.877 307.868C471.15 308.335 471.366 308.594 471.88 308.939C473.005 309.496 473.914 309.886 474.475 310.815C474.674 311.702 475.046 312.663 474.597 313.527C471.833 314.437 462.774 313.816 459.253 313.888C457.174 313.93 455.118 314.141 453.064 314.365Z" fill="#8AD8FF"/>
    <path d="M412.313 290.961C414.556 292.769 417.25 294.158 419.572 295.885C421.089 302.905 422.785 310.81 420.935 317.87C416.684 317.256 413.826 317.134 409.577 317.867C409.696 317.716 409.699 317.529 409.746 317.358C408.032 316.963 406.249 316.342 404.814 315.55C402.509 314.275 401.605 311.831 401.198 309.848C400.225 305.128 399.892 297.44 404.188 293.485C405.775 292.027 408.233 291.517 410.697 291.306C411.218 291.262 411.578 291.259 412.058 291.083C412.147 291.048 412.226 291.001 412.313 290.961Z" fill="#F3E5B5"/>
    <path d="M86.4682 271.269L86.4983 271.537C86.7988 274.513 86.5152 277.566 86.5008 280.555C86.4839 286.073 86.512 291.59 86.585 297.107C86.687 302.063 88.2607 313.932 87.2718 317.902C87.5477 318.426 87.4134 318.531 88.1519 318.779C95.5184 318.28 102.911 318.2 110.309 318.3C107.224 319.293 98.2254 318.695 94.304 318.657C94.4706 320.558 94.3487 322.038 92.5024 323.521C89.3389 326.063 83.3679 325.596 79.0241 325.66C73.1928 325.75 63.0771 326.284 57.5662 325.181C56.3176 324.932 55.1368 324.272 54.2262 323.623C53.5304 323.129 52.7908 322.545 52.7422 321.805C52.7076 321.281 52.8142 320.699 52.8715 320.173C51.95 319.514 49.6249 319.639 48.3472 319.646C45.8595 319.659 43.3558 319.822 40.881 319.601C39.9177 319.661 39.2912 319.678 38.5126 319.239C37.4185 316.456 38.2598 306.92 38.7188 303.64C39.0898 300.99 40.2142 297.84 43.2619 296.141C45.1177 295.105 46.7994 295.244 49.0023 295.48L50.3485 295.373C51.5616 294.315 50.6624 291.547 50.6174 290.208C50.4779 286.052 49.8017 279.129 54.2527 276.043C55.5195 275.164 57.1177 274.642 58.8208 274.384C62.245 273.86 66.1445 274.17 69.6405 274.178L86.0205 274.163C86.1523 273.197 86.3015 272.233 86.4682 271.269Z" fill="#F3E5B5"/>
    <path d="M68.8863 280.54C71.968 280.418 76.5542 279.762 79.3461 280.813C80.1547 281.578 80.2662 282.43 80.3422 283.359C80.5781 286.246 81.4242 291.431 78.6225 293.696C76.9644 294.126 73.9648 294.419 72.2869 293.942C70.7117 293.492 69.7348 292.722 69.1266 291.587C67.9702 289.428 67.6692 282.696 68.8863 280.54Z" fill="#171414"/>
    <path d="M73.5285 281.755C74.7791 281.665 76.5735 281.437 77.7633 281.804C78.4112 282.006 78.6098 282.15 78.85 282.624C79.7191 284.343 79.9727 289.972 78.6153 291.582C78.0211 292.288 77.3158 292.417 76.2887 292.623C74.9408 292.616 73.2862 292.7 72.0229 292.332C71.297 292.124 70.9357 291.858 70.631 291.324C69.4207 289.205 68.9963 284.562 70.1815 282.388C71.0909 281.832 72.388 281.847 73.5285 281.755Z" fill="#8AD8FF"/>
    <path d="M40.881 319.602C39.9177 319.661 39.2912 319.679 38.5126 319.239C37.4185 316.457 38.2598 306.92 38.7188 303.641C39.0898 300.99 40.2142 297.84 43.2619 296.141C45.1177 295.105 46.7994 295.244 49.0023 295.48C51.421 296.071 52.6754 296.73 53.8547 298.401C55.9607 301.385 58.4463 315.383 56.82 318.501C56.6119 318.899 56.5744 318.908 56.2903 319.209C51.5641 320.247 45.7974 318.876 40.881 319.602Z" fill="#353436"/>
    <path d="M51.1084 297.77C51.9656 298.508 52.7431 299.206 53.1745 300.133C54.692 303.387 56.0474 312.519 55.7782 316.104C55.7469 316.521 55.626 317.433 55.1333 317.686C53.65 318.446 42.2267 318.282 39.9562 317.885C43.6781 317.751 47.4786 317.855 51.2122 317.8C50.8864 315.863 51.2276 313.351 50.1903 311.587C49.9278 310.514 50.0346 309.794 50.6289 308.793C51.722 307.387 50.6733 301.765 51.127 299.676C51.282 298.96 51.279 298.481 51.1084 297.77Z" fill="#F3E5B5"/>
    <path d="M50.6289 308.793C51.7605 308.693 52.092 308.594 53.143 308.959C53.5882 309.419 53.9515 309.801 53.7832 310.392C53.5996 311.041 53.1219 311.331 52.4007 311.672C51.5559 311.746 51.0118 311.756 50.1903 311.587C49.9278 310.514 50.0346 309.794 50.6289 308.793Z" fill="#171414"/>
    <path d="M39.9561 317.885C38.9206 315.102 40.0984 302.406 41.7948 299.74C42.616 298.451 43.9095 297.251 45.8599 296.829C47.8401 296.399 49.4252 297.087 51.1084 297.77C51.279 298.481 51.2819 298.96 51.127 299.676C50.6733 301.765 51.722 307.387 50.6288 308.793C50.0346 309.794 49.9278 310.514 50.1903 311.587C51.2276 313.351 50.8864 315.863 51.2122 317.8C47.4785 317.855 43.6781 317.751 39.9561 317.885Z" fill="#FEFDFE"/>
    <path d="M324.134 254.071C324.166 244.757 325.2 235.316 324.775 226.029C324.633 226.821 324.628 227.91 323.945 228.545C319.746 228.89 315.209 228.657 310.973 228.655L286.689 228.63L268.973 228.599C266.42 228.593 260.888 227.812 256.288 229.648C253.693 230.684 253.422 231.015 251.452 232.996C249.488 234.97 248.771 235.99 247.732 238.574C245.799 243.386 246.406 251.852 246.406 251.852L246.486 279.228L246.415 304.356C246.409 309.001 245.846 314.084 246.873 318.66C247.267 320.416 248.181 322.61 249.894 323.921C250.855 324.657 252.409 325.422 253.807 325.603C259.561 326.346 268.409 325.852 274.446 325.837L312.336 325.777C316.16 325.752 324.951 326.346 327.75 324.326C329.047 323.388 329.685 322.06 330.274 320.835L330.29 320.801C333.429 320.955 338.428 321.475 341.393 320.712C335.153 320.568 329.088 320.416 322.878 319.907C322.6 315.741 323.076 311.54 323.357 307.377C323.787 301.062 324.241 294.73 324.504 288.41C324.676 284.351 324.395 280.272 324.323 276.21C324.177 268.83 324.114 261.45 324.134 254.071Z" fill="#A6DCDB"/>
    <path d="M266.189 234.562C269.497 234.664 280.518 234.112 282.522 235.766C284.218 237.166 284.238 246.047 283.686 248.009C283.495 248.69 283.041 248.876 282.288 249.241C279.758 249.48 270.162 250.409 268.151 249.94C267.051 249.686 266.35 249.254 265.884 248.499C264.808 246.75 265.226 236.345 266.189 234.562Z" fill="#171414"/>
    <path d="M299.261 234.494C302.569 234.596 313.59 234.044 315.594 235.698C317.29 237.098 317.31 245.979 316.758 247.941C316.567 248.622 316.113 248.808 315.36 249.174C312.83 249.412 303.234 250.341 301.223 249.872C300.123 249.618 299.422 249.186 298.956 248.431C297.88 246.682 298.297 236.277 299.261 234.494Z" fill="#171414"/>
    <path d="M299.261 264.99C302.569 265.092 313.59 264.54 315.594 266.194C317.29 267.594 317.31 276.475 316.758 278.438C316.567 279.118 316.113 279.305 315.36 279.67C312.83 279.908 303.234 280.837 301.223 280.368C300.123 280.115 299.422 279.682 298.956 278.927C297.88 277.178 298.297 266.774 299.261 264.99Z" fill="#171414"/>
    <path d="M267.262 236.264C270.91 236.227 278.238 235.647 281.32 236.656C281.926 237.457 282.115 238.246 282.236 239.15C282.489 241.034 283.113 246.526 281.491 247.932C278.65 248.027 275.827 248.196 272.993 248.335C271.31 248.414 268.645 248.695 267.379 247.696C265.846 246.487 267.068 238.271 267.262 236.264Z" fill="#A6DCDB"/>
    <path d="M300.334 236.196C303.982 236.16 311.31 235.58 314.392 236.588C314.998 237.39 315.186 238.178 315.308 239.082C315.561 240.966 316.185 246.459 314.563 247.865C311.722 247.959 308.899 248.128 306.065 248.267C304.382 248.347 301.717 248.627 300.451 247.629C298.918 246.419 300.14 238.204 300.334 236.196Z" fill="#A6DCDB"/>
    <path d="M300.334 266.692C303.982 266.656 311.31 266.076 314.392 267.084C314.998 267.886 315.186 268.675 315.308 269.578C315.561 271.462 316.185 276.955 314.563 278.361C311.722 278.455 308.899 278.624 306.065 278.763C304.382 278.843 301.717 279.124 300.451 278.125C298.918 276.915 300.14 268.7 300.334 266.692Z" fill="#A6DCDB"/>
    <path d="M266.457 264.037C267.026 263.993 267.597 263.973 268.168 263.96C271.759 263.883 279.698 263.742 282.345 265.543C283.853 267.808 283.306 272.499 282.869 274.998C282.537 276.908 282.169 277.887 280.043 279.099C276.363 279.574 271.652 279.536 267.908 279.295C266.81 279.226 265.372 279.174 264.644 278.498C262.75 276.747 263.497 271.162 263.805 268.889C264.061 266.994 264.334 265.309 266.457 264.037Z" fill="#171414"/>
    <path d="M231.449 264.352C232.017 264.307 232.589 264.287 233.16 264.275C236.751 264.198 244.69 264.056 247.337 265.857C248.844 268.123 248.298 272.813 247.861 275.312C247.528 277.222 247.161 278.201 245.035 279.414C241.355 279.888 236.644 279.851 232.899 279.61C231.801 279.54 230.364 279.488 229.636 278.812C227.741 277.061 228.489 271.476 228.797 269.203C229.052 267.308 229.326 265.624 231.449 264.352Z" fill="#171414"/>
    <path d="M267.11 265.284C270.738 265.232 277.486 265.125 280.607 266.377C282.082 268.009 281.707 270.817 281.608 272.71C281.504 274.667 281.501 276.314 279.408 277.725C276.145 278.155 269.686 278.465 266.544 277.584C265.757 277.363 265.499 277.218 265.191 276.64C264.436 275.214 265.022 269.165 265.601 267.575C265.899 266.753 266.524 266.012 267.11 265.284Z" fill="#A6DCDB"/>
    <path d="M232.102 265.599C235.73 265.547 242.477 265.44 245.599 266.692C247.074 268.324 246.699 271.131 246.599 273.024C246.495 274.982 246.493 276.629 244.399 278.04C241.136 278.47 234.677 278.78 231.536 277.898C230.748 277.677 230.49 277.533 230.182 276.954C229.427 275.528 230.013 269.479 230.592 267.889C230.89 267.067 231.516 266.327 232.102 265.599Z" fill="white"/>
    <path d="M230.772 248.181C230.099 247.065 229.517 245.786 229.221 244.589C228.266 240.711 228.028 228.429 229.072 224.499C229.438 223.124 230.131 221.784 231.273 220.645C233.059 218.862 235.706 217.87 238.694 217.593C243.106 217.183 250.821 217.162 254.352 219.259C257.905 221.371 258.176 225.091 258.519 228.157C258.546 228.732 258.631 229.308 258.487 229.874L258.385 229.581C258.119 228.798 258.29 228.484 257.347 228.025C254.19 227.933 249.214 228.64 246.922 230.305C246.537 230.585 246.348 230.911 246.147 231.271C246.212 231.721 246.294 232.078 246.525 232.5C243.583 233.079 233.701 231.533 232.064 233.832C230.276 236.344 230.758 245.051 230.772 248.181Z" fill="#80CAEF" fill-opacity="0.8"/>
    <path d="M230.691 247.953C230.677 244.823 230.195 236.116 231.983 233.604C233.62 231.306 243.502 232.852 246.444 232.272C246.213 231.851 246.131 231.493 246.066 231.043C246.267 230.683 246.456 230.357 246.841 230.077C249.133 228.412 254.109 227.705 257.266 227.797C258.209 228.256 258.038 228.57 258.304 229.353L258.406 229.646C258.5 235.234 260.218 245.586 254.527 249.826C252.955 250.999 251.085 251.418 248.87 251.413C244.767 251.404 236.712 250.72 232.62 250.236C232.568 250.229 232.515 250.231 232.464 250.226C231.413 249.508 231.118 248.942 230.691 247.953Z" fill="#80CAEF" fill-opacity="0.8"/>
    <path d="M229.331 235.981C232.638 236.084 243.659 235.532 245.663 237.186C247.359 238.585 247.379 247.467 246.828 249.429C246.637 250.11 246.182 250.296 245.43 250.661C242.899 250.9 233.304 251.829 231.292 251.359C230.192 251.106 229.492 250.674 229.025 249.919C227.95 248.17 228.367 237.765 229.331 235.981Z" fill="#171414"/>
    <path d="M230.403 237.684C234.051 237.647 241.38 237.067 244.461 238.075C245.067 238.877 245.256 239.666 245.378 240.57C245.631 242.454 246.254 247.946 244.633 249.352C241.792 249.447 238.968 249.616 236.135 249.755C234.451 249.834 231.787 250.115 230.52 249.116C228.988 247.906 230.21 239.691 230.403 237.684Z" fill="#80CAEF"/>
    <path d="M288.32 310.728V315.563H280.508H275.258L270.837 315.005C270.837 315.005 270.741 312.177 270.837 310.728C270.963 308.822 271.221 307.769 271.581 305.893C271.946 303.99 271.867 302.81 272.697 301.059C274.377 297.512 276.586 294.611 280.508 294.736C284.719 294.871 286.765 298.504 287.948 302.546C288.479 304.364 288.26 305.488 288.32 307.381C288.361 308.687 288.32 309.421 288.32 310.728Z" stroke="#171414" stroke-width="1.5"/>
    <path d="M286.832 306.637C286.832 307.664 285.999 308.497 284.972 308.497C283.945 308.497 283.112 307.664 283.112 306.637C283.112 305.61 283.945 304.778 284.972 304.778C285.999 304.778 286.832 305.61 286.832 306.637ZM283.819 306.637C283.819 307.274 284.335 307.79 284.972 307.79C285.609 307.79 286.125 307.274 286.125 306.637C286.125 306 285.609 305.484 284.972 305.484C284.335 305.484 283.819 306 283.819 306.637Z" fill="black"/>
    <path d="M567.983 260.902L566.939 260.39C566.939 260.39 565.633 258.867 565.379 257.717C564.403 253.27 563.795 247.246 567.721 243.468C569.109 242.131 571.426 240.648 573.815 240.447C575.737 240.285 578.764 241.667 578.764 241.667C578.764 241.667 582.675 242.594 583.994 244.509C584.698 245.531 585.466 247.513 585.466 247.513C585.466 247.513 585.917 249.274 586.21 250.488C586.515 251.757 586.571 252.538 586.597 253.806C586.642 255.965 587.019 257.691 584.738 259.013C583.278 259.859 582.479 260.49 580.793 260.549C575.418 260.738 567.983 260.902 567.983 260.902Z" fill="#8AD8FF"/>
    <path d="M580.681 244.715C585.538 240.221 592.884 230.204 598.645 227.199C599.626 227.213 600.001 227.427 600.708 227.917C604.103 230.272 617.53 247.741 617.436 251.033C617.423 251.405 617.332 251.87 616.942 252.131C615.397 253.164 612.588 253 610.783 253.855C610.133 254.073 610.488 254.036 609.705 253.904L609.042 253.117C611.031 251.706 613.775 251.967 615.973 250.864C616.065 249.684 614.982 248.263 614.307 247.212C612.566 244.497 601.347 229.021 599.082 228.422C595.613 230.134 587.073 239.987 584.381 242.949C582.67 244.949 579.243 247.13 578.287 249.294L578.49 249.728C580.596 250.2 583.539 248.993 584.974 250.402C585.411 252.769 584.289 255.251 584.08 257.618C583.983 258.739 584.207 259.909 584.316 261.024C584.428 262.187 584.85 263.605 583.862 264.591C577.43 266.686 567.926 264.365 561.147 265.612C559.6 268.33 555.609 275.393 555.892 278.009C557.298 278.712 560.427 278.473 562.17 278.49C562.049 282.972 561.686 287.444 561.532 291.923C561.453 294.198 562.091 297.43 561.274 299.606C561.274 301.676 561.472 311.585 560.303 312.656C557.514 313.418 554.648 313.076 551.743 313.212C549.833 313.302 547.956 313.595 546.041 313.637L545.376 313.401C545.485 312.723 545.455 312.052 545.44 311.374C545.987 311.774 546.379 311.992 547.092 312.216L547.68 312.03C551.651 311.625 555.657 311.749 559.63 311.257C559.62 306.664 559.756 302.12 560.203 297.534C558.776 292.392 560.948 285.424 560.313 279.849C558.825 279.812 557.117 279.857 555.684 279.556C554.728 279.355 554.276 279.044 553.814 278.426C554.462 274.59 557.981 267.284 560.66 263.958C563.429 264.035 566.171 264.06 568.942 264.005C573.318 264.229 578.389 264.013 582.71 263.598C582.861 261.792 582.64 259.948 582.705 258.132C582.786 255.74 583.166 253.35 583.497 250.971C581.902 251.06 579.59 251.378 578.091 250.943C577.174 250.677 577.025 250.466 576.611 249.873C576.712 248.019 579.181 246.164 580.681 244.715Z" fill="#171414"/>
    <path d="M605.571 284.158C608.025 283.733 613.282 283.142 615.502 284.059C616.587 284.508 616.995 285.134 617.213 285.986C617.64 287.638 617.255 290.13 616.821 291.782C616.595 290.418 617.188 285.875 616.269 285.097L616.031 285.363C616.212 286.257 616.567 287.328 615.82 288.088C615.768 287.084 615.852 286.419 614.916 285.624C613.096 285.042 610.67 285.373 608.69 285.408C609.214 285.172 609.694 284.943 610.18 284.665C609.093 284.106 606.932 284.23 605.571 284.158Z" fill="#171414"/>
    <path d="M616.821 291.782L616.771 292.937C616.307 293.39 616.155 293.551 615.393 293.745C612.624 294.448 607.712 294.522 605.062 293.658C603.478 292.299 604.21 287.338 604.528 285.522C604.652 284.807 604.767 284.571 605.571 284.158C606.932 284.23 609.093 284.106 610.18 284.665C609.694 284.943 609.214 285.172 608.69 285.408C607.642 285.534 606.967 285.462 606.311 286.156C605.306 287.221 605.092 290.217 605.683 291.417C605.897 291.854 606.085 292.048 606.55 292.351C609.103 292.995 612.582 292.629 615.254 292.453C615.512 290.995 615.723 289.556 615.82 288.088C616.567 287.328 616.212 286.257 616.031 285.363L616.269 285.097C617.188 285.875 616.595 290.418 616.821 291.782Z" fill="#171414"/>
    </g>
    <defs>
    <clipPath id="clip0_2004_7321">
    <rect width="706" height="352" fill="white"/>
    </clipPath>
    </defs>
    </svg>
    