<svg width="24" height="24" viewBox="0 0 24 24" fill="none" xmlns="http://www.w3.org/2000/svg">
  <g clip-path="url(#clip0_1508_2940)">
  <path d="M13.5 7.9125L19.0875 0.75H22.95L18.6375 7.9125H13.5Z" fill="#E8E8E8"/>
  <path d="M18.1125 1.9875C18.1125 1.9875 19.2375 2.6625 20.5125 2.625C21.7875 2.55 22.9125 0.75 22.9125 0.75L20.85 4.1625L18.1125 1.9875Z" fill="#B2C1C0"/>
  <path d="M21.675 13.9875L8.69995 3.67499C14.8125 -4.38751 27.7875 5.92499 21.675 13.9875Z" fill="#E8E8E8"/>
  <path d="M10.3876 1.98749C9.2251 1.98749 7.5376 3.33749 7.5376 3.33749L21.8626 14.775C21.8626 14.775 23.1751 13.2 22.8376 11.475C22.6876 10.7625 22.2376 9.78749 21.6001 8.81249C20.9626 7.87499 20.1751 6.93749 19.2751 6.11249C18.3751 5.28749 17.4001 4.53749 16.3501 3.89999C15.3376 3.26249 14.2501 2.77499 13.2376 2.43749C12.2626 2.13749 11.2876 1.98749 10.3876 1.98749Z" fill="#B2C1C0"/>
  <path d="M9.93755 2.51249C9.00005 2.54999 7.95005 2.81249 7.31255 3.59999C6.63755 4.42499 6.67505 5.58749 6.93755 6.59999C7.53755 8.77499 9.18755 10.6125 10.8376 12.0375C12.6376 13.575 14.7376 14.85 17.0251 15.45C18.7501 15.9 21.6001 16.125 22.3501 13.9875C22.8376 12.6 22.2001 10.9875 21.4876 9.78749C20.7001 8.43749 19.6126 7.27499 18.4126 6.26249C17.1751 5.21249 15.8251 4.31249 14.3626 3.63749C13.0126 2.96249 11.4751 2.47499 9.93755 2.51249Z" fill="#62727A"/>
  <path d="M10.4625 3.30001C9.52498 3.33751 8.47498 3.63751 7.98748 4.50001C7.46248 5.40001 7.64998 6.52501 8.02498 7.46251C8.84998 9.56251 10.6125 11.2875 12.4125 12.6C14.2875 13.9125 16.6125 15.1125 18.9375 15C19.875 14.9625 20.8875 14.625 21.3375 13.725C21.825 12.7875 21.6 11.625 21.1875 10.6875C20.325 8.62501 18.6 6.93751 16.8375 5.66251C15 4.38751 12.75 3.22501 10.4625 3.30001Z" fill="#B2C1C0"/>
  <path d="M16.7999 12.5625C16.3499 12.5625 16.4624 13.0125 16.6499 13.275C16.8749 13.575 17.2874 13.8375 17.6999 13.875C18.1499 13.875 18.0749 13.425 17.8499 13.2C17.6249 12.825 17.2124 12.5625 16.7999 12.5625Z" fill="#3E4347"/>
  <path d="M13.65 8.8125C13.125 8.8125 13.275 9.3375 13.5 9.6375C13.7625 9.975 14.2125 10.275 14.6625 10.3125C15.1875 10.3125 15.0375 9.7875 14.8125 9.525C14.55 9.15 14.0625 8.8125 13.65 8.8125Z" fill="#3E4347"/>
  <path d="M11.0624 4.16251C10.4999 4.16251 10.6874 4.80001 10.9124 5.10001C11.2124 5.47501 11.6999 5.85001 12.1874 5.81251C12.7499 5.81251 12.5999 5.21251 12.3374 4.87501C12.0749 4.53751 11.5499 4.16251 11.0624 4.16251Z" fill="#3E4347"/>
  <path d="M9.59996 7.08749C9.14996 7.08749 9.29996 7.57499 9.48746 7.83749C9.71246 8.13749 10.125 8.43749 10.5375 8.43749C10.9875 8.43749 10.8375 7.94999 10.65 7.68749C10.3875 7.38749 10.0125 7.08749 9.59996 7.08749Z" fill="#3E4347"/>
  <path d="M12.4501 11.0625C12.1126 11.0625 12.2251 11.4 12.3751 11.5875C12.5626 11.8125 12.8626 12.0375 13.1626 12.0375C13.5376 12.0375 13.3876 11.625 13.2001 11.475C13.0126 11.25 12.7501 11.0625 12.4501 11.0625Z" fill="#3E4347"/>
  <path d="M15.4125 6.48752C14.775 6.48752 14.925 7.12502 15.225 7.50002C15.5625 7.91252 16.125 8.28752 16.65 8.28752C17.2875 8.28752 17.1375 7.65002 16.875 7.27502C16.5 6.86252 15.9375 6.48752 15.4125 6.48752Z" fill="#3E4347"/>
  <path d="M18.7124 10.4625C18.1499 10.4625 18.2624 11.025 18.5249 11.3625C18.8249 11.7375 19.3124 12.075 19.7999 12.075C20.3624 12.075 20.2499 11.5125 19.9874 11.2125C19.6874 10.8 19.1999 10.4625 18.7124 10.4625Z" fill="#3E4347"/>
  <path d="M11.25 4.3125L0.75 10.8V11.175L11.5125 4.575L11.25 4.3125Z" fill="#8AD8FF"/>
  <path d="M9.9 7.16251L0.75 14.8875V15.2625L10.0875 7.42501L9.9 7.16251Z" fill="#8AD8FF"/>
  <path d="M10.2 7.46249L0.75 16.6125V16.9875L10.3875 7.68749L10.2 7.46249Z" fill="#8AD8FF"/>
  <path d="M10.5 7.83749L0.75 18.0375V18.4125L10.6875 7.98749L10.5 7.83749Z" fill="#8AD8FF"/>
  <path d="M11.7375 4.72501L0.75 12.15V12.525L11.9625 4.98751L11.7375 4.72501Z" fill="#8AD8FF"/>
  <path d="M12.1125 5.10001L0.75 13.5V13.95L12.3375 5.40001L12.1125 5.10001Z" fill="#8AD8FF"/>
  <path d="M15.45 6.71249L0.75 19.2V19.725L15.75 6.93749L15.45 6.71249Z" fill="#8AD8FF"/>
  <path d="M13.6875 8.85001L0.75 21.0375V21.5625L13.95 9.11251L13.6875 8.85001Z" fill="#8AD8FF"/>
  <path d="M15.975 7.08749L2.92505 23.25H3.41255L16.275 7.34999L15.975 7.08749Z" fill="#8AD8FF"/>
  <path d="M13.9875 9.14999L0.75 23.25H1.2L14.2875 9.37499L13.9875 9.14999Z" fill="#8AD8FF"/>
  <path d="M14.5125 9.63751L4.875 23.25H5.3625L14.8125 9.90001L14.5125 9.63751Z" fill="#8AD8FF"/>
  <path d="M16.5 7.46249L6.67505 23.25H7.08755L16.8 7.72499L16.5 7.46249Z" fill="#8AD8FF"/>
  <path d="M18.7126 10.6125L11.2876 23.25H11.7001L19.0501 10.8L18.7126 10.6125Z" fill="#8AD8FF"/>
  <path d="M16.7626 12.6375L8.17505 23.25H8.58755L17.1 12.825L16.7626 12.6375Z" fill="#8AD8FF"/>
  <path d="M17.1751 12.9L9.7876 23.25H10.2001L17.5126 13.0875L17.1751 12.9Z" fill="#8AD8FF"/>
  <path d="M17.6251 13.2L12.7876 23.25H13.2001L17.9251 13.3875L17.6251 13.2Z" fill="#8AD8FF"/>
  <path d="M19.2374 10.9875L14.0249 23.25H14.3999L19.5749 11.1375L19.2374 10.9875Z" fill="#8AD8FF"/>
  <path d="M19.6874 11.325L15.3374 23.25H15.7124L20.0624 11.5125L19.6874 11.325Z" fill="#8AD8FF"/>
  </g>
  <defs>
  <clipPath id="clip0_1508_2940">
  <rect width="24" height="24" fill="white"/>
  </clipPath>
  </defs>
  </svg>
  