<svg width="24" height="24" viewBox="0 0 24 24" fill="none" xmlns="http://www.w3.org/2000/svg">
	<g clip-path="url(#clip0_1508_2899)">
	<path d="M12.5334 10.4698H11.4668V19.2245H12.5334V10.4698Z" fill="#69351D"/>
	<path d="M12.5333 10.4698H12V19.2245H12.5333V10.4698Z" fill="#542C19"/>
	<path d="M14.8762 18.6913H9.12354V19.7579H14.8762V18.6913Z" fill="#69351D"/>
	<path d="M14.8762 19.2251H9.12354V19.7584H14.8762V19.2251Z" fill="#542C19"/>
	<path d="M6.52402 16.3351H0.533447V17.4018H6.52402V16.3351Z" fill="#69351D"/>
	<path d="M1.06674 10.8509C1.59516 10.1364 1.92201 9.14922 1.92201 8.05891C1.92201 6.96861 1.59516 5.98143 1.06674 5.26697H0.533447V10.851H1.06679V10.8509H1.06674Z" fill="#E69824"/>
	<path d="M6.81168 12.2247C6.09717 11.6963 5.11003 11.3694 4.01973 11.3694C2.92943 11.3694 1.94225 11.6963 1.22778 12.2247V12.7581H6.81177V12.2247H6.81168Z" fill="#E69824"/>
	<path d="M7.05711 12.7581H5.99048V19.8595H7.05711V12.7581Z" fill="#542C19"/>
	<path d="M1.06663 12.6663H0V19.8595H1.06663V12.6663Z" fill="#542C19"/>
	<path d="M1.06663 12.2247V4.98901H0V13.2914H7.05744V12.2247H1.06663Z" fill="#69351D"/>
	<path d="M23.4662 16.3351H17.4756V17.4018H23.4662V16.3351Z" fill="#69351D"/>
	<path d="M22.9332 10.8509C22.4047 10.1364 22.0779 9.14922 22.0779 8.05891C22.0779 6.96861 22.4047 5.98143 22.9332 5.26697H23.4665V10.851H22.9332V10.8509Z" fill="#E69824"/>
	<path d="M17.1882 12.2247C17.9027 11.6963 18.8899 11.3694 19.9802 11.3694C21.0705 11.3694 22.0577 11.6963 22.7721 12.2247V12.7581H17.1882V12.2247Z" fill="#E69824"/>
	<path d="M18.009 12.7581H16.9424V19.8595H18.009V12.7581Z" fill="#542C19"/>
	<path d="M24 12.6663H22.9333V19.8595H24V12.6663Z" fill="#542C19"/>
	<path d="M22.9332 12.2247V4.98901H23.9998V13.2914H16.9424V12.2247H22.9332Z" fill="#69351D"/>
	<path d="M12.6244 6.64843C12.4707 6.69456 12.3101 6.61182 12.3101 6.61182C12.3101 6.61182 12.3986 6.45428 12.5522 6.40815C12.7059 6.36203 12.8665 6.44476 12.8665 6.44476C12.8665 6.44476 12.778 6.60231 12.6244 6.64843Z" fill="#A0D625"/>
	<path d="M12.8663 6.44473L12.3098 6.61179C12.3098 6.61179 12.4705 6.69457 12.6241 6.6484C12.7778 6.60228 12.8663 6.44473 12.8663 6.44473Z" fill="#8EBF2D"/>
	<path d="M12.0295 6.98022L12.1348 7.03687L12.676 6.03113L12.5707 5.97449L12.0295 6.98022Z" fill="#A0D625"/>
	<path d="M13.0559 5.65753L12.9691 5.3603L12.6732 5.45151L12.5795 5.26697C12.5441 5.30845 12.5118 5.35528 12.484 5.40694C12.3338 5.68603 12.3717 5.99821 12.5686 6.10424C12.7656 6.21027 13.0471 6.06998 13.1973 5.79084C13.2251 5.73918 13.2464 5.68645 13.2615 5.63404L13.0559 5.65753Z" fill="#E69824"/>
	<path d="M13.0559 5.65752L12.969 5.36029C12.969 5.36029 12.6732 5.9099 12.5686 6.10419C12.7656 6.21022 13.0471 6.06993 13.1972 5.79079C13.225 5.73913 13.2464 5.6864 13.2615 5.63399L13.0559 5.65752Z" fill="#CF8920"/>
	<path d="M12.4237 5.93183C12.267 6.08844 12.0176 6.09289 12.0176 6.09289C12.0176 6.09289 12.0221 5.84347 12.1786 5.68682C12.3352 5.53021 12.5847 5.52576 12.5847 5.52576C12.5847 5.52576 12.5803 5.77522 12.4237 5.93183Z" fill="#A0D625"/>
	<path d="M12.5847 5.52585L12.0176 6.09298C12.0176 6.09298 12.267 6.08848 12.4237 5.93192C12.5803 5.77522 12.5847 5.52585 12.5847 5.52585Z" fill="#8EBF2D"/>
	<path d="M12.0824 5.1481H11.9175V6.72478H12.0824V5.1481Z" fill="#A0D625"/>
	<path d="M12.2999 4.44498L11.9998 4.14053L11.6998 4.44503L11.4652 4.28195C11.4493 4.3555 11.4407 4.43364 11.4407 4.51459C11.4407 4.95212 11.691 5.30687 11.9998 5.30687C12.3086 5.30687 12.5589 4.95212 12.5589 4.51459C12.5589 4.43364 12.5503 4.3555 12.5344 4.28195L12.2999 4.44498Z" fill="#E69824"/>
	<path d="M12.3001 4.44498L12 4.14053C12 4.14053 12 5.00218 12 5.30677C12.3088 5.30677 12.5591 4.95203 12.5591 4.5145C12.5591 4.43355 12.5505 4.35541 12.5346 4.28186L12.3001 4.44498Z" fill="#CF8920"/>
	<path d="M11.3755 6.64843C11.5291 6.69456 11.6897 6.61182 11.6897 6.61182C11.6897 6.61182 11.6012 6.45428 11.4476 6.40815C11.2939 6.36203 11.1333 6.44476 11.1333 6.44476C11.1333 6.44476 11.2218 6.60231 11.3755 6.64843Z" fill="#A0D625"/>
	<path d="M11.1335 6.44473L11.69 6.61179C11.69 6.61179 11.5294 6.69457 11.3757 6.6484C11.222 6.60228 11.1335 6.44473 11.1335 6.44473Z" fill="#8EBF2D"/>
	<path d="M11.4292 5.97393L11.324 6.03058L11.8652 7.03631L11.9705 6.97967L11.4292 5.97393Z" fill="#A0D625"/>
	<path d="M10.9441 5.65753L11.0309 5.3603L11.3268 5.45151L11.4205 5.26697C11.4559 5.30845 11.4882 5.35528 11.516 5.40694C11.6662 5.68603 11.6283 5.99821 11.4314 6.10424C11.2344 6.21027 10.9529 6.06998 10.8027 5.79084C10.7749 5.73918 10.7536 5.68645 10.7385 5.63404L10.9441 5.65753Z" fill="#E69824"/>
	<path d="M10.9439 5.65752L11.0308 5.36029C11.0308 5.36029 11.3266 5.9099 11.4311 6.10419C11.2341 6.21022 10.9527 6.06993 10.8025 5.79079C10.7747 5.73913 10.7534 5.6864 10.7383 5.63399L10.9439 5.65752Z" fill="#CF8920"/>
	<path d="M10.9473 6.58044V6.89891C10.9502 8.89239 11.292 9.16633 11.9705 9.16633C12.6491 9.16633 12.9909 8.89244 12.9938 6.89891V6.58044H10.9473Z" fill="#B90B27"/>
	<path d="M12.9938 6.58026H10.947V6.89868H12.9938V6.58026Z" fill="#DD5323"/>
	<path d="M18.6664 11.1732H18.5331C18.2805 11.1732 18.1467 11.0618 18.0392 10.9724C17.9421 10.8916 17.872 10.8332 17.7159 10.8332C17.5599 10.8332 17.4898 10.8916 17.3927 10.9724C17.2852 11.0618 17.1513 11.1732 16.8988 11.1732C16.6464 11.1732 16.5127 11.0619 16.4052 10.9723C16.3082 10.8916 16.2382 10.8332 16.0823 10.8332C15.9263 10.8332 15.8562 10.8916 15.7592 10.9723C15.6517 11.0619 15.5179 11.1732 15.2654 11.1732C15.0131 11.1732 14.8793 11.0619 14.7719 10.9723C14.6749 10.8916 14.6048 10.8332 14.4489 10.8332C14.293 10.8332 14.2229 10.8916 14.1259 10.9723C14.0184 11.0619 13.8846 11.1732 13.6321 11.1732C13.3797 11.1732 13.2459 11.0619 13.1384 10.9723C13.0415 10.8916 12.9714 10.8332 12.8154 10.8332C12.6595 10.8332 12.5894 10.8916 12.4924 10.9723C12.3849 11.0619 12.2512 11.1732 11.9988 11.1732C11.7464 11.1732 11.6126 11.0619 11.5051 10.9723C11.4082 10.8916 11.3381 10.8332 11.1822 10.8332C11.0262 10.8332 10.9561 10.8916 10.8591 10.9723C10.7516 11.0619 10.6179 11.1732 10.3654 11.1732C10.113 11.1732 9.97928 11.0618 9.87179 10.9723C9.77481 10.8916 9.70473 10.8332 9.54883 10.8332C9.39297 10.8332 9.32294 10.8916 9.22591 10.9723C9.11843 11.0618 8.98469 11.1732 8.73237 11.1732C8.47999 11.1732 8.34626 11.0618 8.23882 10.9723C8.14189 10.8916 8.07181 10.8332 7.9159 10.8332C7.76 10.8332 7.68992 10.8916 7.59289 10.9723C7.48541 11.0619 7.35167 11.1732 7.09925 11.1732C6.84688 11.1732 6.71315 11.0618 6.60571 10.9723C6.50877 10.8916 6.4387 10.8332 6.28279 10.8332C6.12698 10.8332 6.057 10.8916 5.96006 10.9723C5.85262 11.0618 5.71894 11.1732 5.46661 11.1732H5.33325V9.14951H18.6661V11.1732H18.6664Z" fill="#E58FBE"/>
	<path d="M18.6667 9.14984H5.33374V9.66631H18.6667V9.14984Z" fill="#CE81AB"/>
	</g>
	<defs>
	<clipPath id="clip0_1508_2899">
	<rect width="24" height="24" fill="white"/>
	</clipPath>
	</defs>
	</svg>
	