<svg width="32" height="32" viewBox="0 0 32 32" fill="none" xmlns="http://www.w3.org/2000/svg">
    <path d="M8.77381 23.554L21.6078 5.22003C21.6812 5.10808 21.7763 5.01201 21.8875 4.93751C21.9988 4.863 22.1238 4.81159 22.2552 4.78631C22.3867 4.76103 22.5219 4.76239 22.6528 4.79033C22.7837 4.81827 22.9077 4.8722 23.0174 4.94894C23.127 5.02567 23.2202 5.12365 23.2913 5.23706C23.3624 5.35047 23.4101 5.477 23.4314 5.60916C23.4527 5.74131 23.4472 5.8764 23.4153 6.00641C23.3835 6.13642 23.3258 6.25871 23.2458 6.36603L9.81981 25.546C9.74303 25.6561 9.64488 25.7496 9.53121 25.8209C9.41754 25.8923 9.29068 25.94 9.15818 25.9613C9.02567 25.9825 8.89024 25.9769 8.75996 25.9448C8.62967 25.9126 8.50719 25.8545 8.39981 25.774L1.19981 20.374C1.09475 20.2952 1.00624 20.1965 0.939334 20.0835C0.872427 19.9705 0.828431 19.8454 0.809859 19.7154C0.772352 19.4529 0.840679 19.1862 0.999809 18.974C1.15894 18.7619 1.39584 18.6216 1.65839 18.5841C1.92094 18.5466 2.18764 18.6149 2.39981 18.774L8.77381 23.554ZM22.9998 14C22.7346 14 22.4802 13.8947 22.2927 13.7071C22.1052 13.5196 21.9998 13.2652 21.9998 13C21.9998 12.7348 22.1052 12.4805 22.2927 12.2929C22.4802 12.1054 22.7346 12 22.9998 12H28.9998C29.265 12 29.5194 12.1054 29.7069 12.2929C29.8945 12.4805 29.9998 12.7348 29.9998 13C29.9998 13.2652 29.8945 13.5196 29.7069 13.7071C29.5194 13.8947 29.265 14 28.9998 14H22.9998ZM18.9998 20C18.7346 20 18.4802 19.8947 18.2927 19.7071C18.1052 19.5196 17.9998 19.2652 17.9998 19C17.9998 18.7348 18.1052 18.4805 18.2927 18.2929C18.4802 18.1054 18.7346 18 18.9998 18H28.9978C29.263 18 29.5174 18.1054 29.7049 18.2929C29.8925 18.4805 29.9978 18.7348 29.9978 19C29.9978 19.2652 29.8925 19.5196 29.7049 19.7071C29.5174 19.8947 29.263 20 28.9978 20H18.9998ZM14.9998 26C14.7346 26 14.4802 25.8947 14.2927 25.7071C14.1052 25.5196 13.9998 25.2652 13.9998 25C13.9998 24.7348 14.1052 24.4805 14.2927 24.2929C14.4802 24.1054 14.7346 24 14.9998 24H28.9978C29.263 24 29.5174 24.1054 29.7049 24.2929C29.8925 24.4805 29.9978 24.7348 29.9978 25C29.9978 25.2652 29.8925 25.5196 29.7049 25.7071C29.5174 25.8947 29.263 26 28.9978 26H14.9998Z" fill="#DA4453"/>
    </svg>
    