<svg width="24" height="24" viewBox="0 0 24 24" fill="none" xmlns="http://www.w3.org/2000/svg">
  <g clip-path="url(#clip0_1508_2890)">
  <path d="M1.91748 10.5398H12.5269V23.974H1.91748V10.5398Z" fill="#981700"/>
  <path d="M12.0059 10.5398H22.0942V23.974H12.0059V10.5398Z" fill="#5B7F81"/>
  <path d="M14.6479 15.7248H19.4515V21.3769H14.6479V15.7248Z" fill="#234848"/>
  <path d="M17.0499 10.5398C15.5792 10.5398 14.3762 9.33816 14.3762 7.86928V7.08778C14.3762 7.03645 14.3779 6.98541 14.3805 6.93488H19.7192C19.7219 6.98541 19.7238 7.03645 19.7238 7.08778V7.86928C19.7238 9.33811 18.5206 10.5398 17.0499 10.5398Z" fill="#C13421"/>
  <path d="M14.3762 7.08769C14.3762 7.03636 14.3779 6.98532 14.3805 6.93478H17.2071C17.2098 6.98532 17.2117 7.03636 17.2117 7.08769V7.86919C17.2117 8.8853 16.6357 9.77325 15.7939 10.2243C14.9521 9.77325 14.3762 8.88535 14.3762 7.86919V7.08769Z" fill="#FF4328"/>
  <path d="M5.71212 5.2215V5.65973C5.71212 6.30126 5.1866 6.82589 4.54455 6.82589H4.54427C3.90218 6.82589 3.37671 6.30126 3.37671 5.65973V5.2215C3.37671 4.57997 3.90222 4.05539 4.54427 4.05539H4.54455C5.1866 4.0553 5.71212 4.57997 5.71212 5.2215Z" fill="#415E5C"/>
  <path d="M10.5466 5.2215V6.82594H8.21118V5.2215C8.21118 4.58006 8.7367 4.05539 9.37874 4.05539H9.37903C10.0212 4.0553 10.5466 4.58001 10.5466 5.2215Z" fill="#B76700"/>
  <path d="M8.8256 13.4179C8.8256 13.6471 8.6389 13.833 8.40865 13.833H5.51496C5.28466 13.833 5.09801 13.6471 5.09801 13.4179C5.09801 13.1887 5.28462 13.0028 5.51496 13.0028H8.40865C8.6389 13.0028 8.8256 13.1887 8.8256 13.4179ZM19.8686 15.7248V21.3769C19.8686 21.6072 19.6819 21.7939 19.4516 21.7939H14.6482C14.4179 21.7939 14.2312 21.6072 14.2312 21.3769V15.7248C14.2312 15.4946 14.4179 15.3079 14.6482 15.3079H19.4516C19.6819 15.3079 19.8686 15.4946 19.8686 15.7248ZM19.0347 16.1418H15.0651V20.96H19.0347V16.1418ZM14.6482 13.833H14.7443C14.9746 13.833 15.1612 13.6471 15.1612 13.4179C15.1612 13.1887 14.9746 13.0028 14.7443 13.0028H14.6482C14.4179 13.0028 14.2312 13.1887 14.2312 13.4179C14.2312 13.6471 14.4179 13.833 14.6482 13.833ZM19.3555 13.833H19.4517C19.6819 13.833 19.8686 13.6471 19.8686 13.4179C19.8686 13.1887 19.6819 13.0028 19.4517 13.0028H19.3555C19.1253 13.0028 18.9386 13.1887 18.9386 13.4179C18.9386 13.6471 19.1252 13.833 19.3555 13.833ZM16.9537 13.833H17.0499C17.2802 13.833 17.4669 13.6471 17.4669 13.4179C17.4669 13.1887 17.2803 13.0028 17.0499 13.0028H16.9537C16.7235 13.0028 16.5368 13.1887 16.5368 13.4179C16.5368 13.6471 16.7234 13.833 16.9537 13.833ZM1.49098 0.523674C1.49098 0.294456 1.67768 0.108596 1.90793 0.108596H4.5446C4.54465 0.108596 9.3791 0.108596 9.3791 0.108596H12.0156C12.2458 0.108596 12.4325 0.294456 12.4325 0.523674C12.4325 0.752893 12.2458 0.938752 12.0156 0.938752H9.79605V3.69444C10.4681 3.87786 10.9636 4.49277 10.9636 5.22149V6.82592C10.9636 7.05617 10.7769 7.24288 10.5467 7.24288H8.21121C7.98096 7.24288 7.79426 7.05617 7.79426 6.82592V5.22149C7.79426 4.49263 8.28996 3.87763 8.9621 3.69435V0.938752H4.96151V3.69444C5.6336 3.87786 6.12907 4.49277 6.12907 5.22149V5.65972C6.12907 6.53263 5.41826 7.24278 4.54455 7.24278H4.54427C3.67057 7.24278 2.9598 6.53263 2.9598 5.65972V5.22149C2.9598 4.49263 3.45551 3.87763 4.1276 3.69435V0.938752H1.90788C1.67763 0.938752 1.49098 0.752893 1.49098 0.523674ZM4.5446 4.47224C4.13046 4.47224 3.79376 4.80833 3.79376 5.22144V5.65967C3.79376 6.07283 4.13051 6.40888 4.54437 6.40888H4.54465C4.95855 6.40888 5.2953 6.07278 5.2953 5.65967V5.22144C5.2953 4.80833 4.9586 4.47224 4.5446 4.47224ZM9.3791 4.47224C8.96491 4.47224 8.62821 4.80833 8.62821 5.22144V6.40892H10.1298V5.22144C10.1298 4.80833 9.79306 4.47224 9.3791 4.47224ZM17.9006 4.08632C17.7472 4.25727 17.762 4.51963 17.9337 4.67239C18.0133 4.74317 18.1125 4.778 18.2114 4.778C18.326 4.778 18.4401 4.73127 18.5224 4.63949C19.3571 3.70977 18.8335 2.77058 18.4512 2.0848C18.0582 1.37985 17.9145 1.03203 18.1879 0.660174C18.3238 0.475159 18.2834 0.215471 18.0975 0.0800962C17.9117 -0.055185 17.6508 -0.0149663 17.5149 0.170002C16.898 1.00935 17.3549 1.829 17.7221 2.4876C18.1614 3.27561 18.3005 3.64086 17.9006 4.08632ZM15.6231 4.08632C15.4697 4.25722 15.4844 4.51963 15.6562 4.67239C15.7357 4.74317 15.835 4.778 15.9339 4.778C16.0484 4.778 16.1626 4.73127 16.2449 4.63953C17.0796 3.70977 16.556 2.77049 16.1736 2.08471C15.7806 1.37975 15.6369 1.03199 15.9101 0.660127C16.0461 0.475112 16.0056 0.215424 15.8198 0.0800962C15.634 -0.055185 15.3731 -0.0149194 15.2371 0.170049C14.6205 1.00935 15.0774 1.82896 15.4445 2.4875C15.8839 3.27557 16.023 3.64082 15.6231 4.08632ZM23.6223 23.5589C23.6223 23.7881 23.4356 23.974 23.2053 23.974H22.2382C22.1933 23.9906 22.1449 24 22.0942 24H1.91768C1.86696 24 1.81859 23.9906 1.77368 23.974H0.794883C0.564633 23.974 0.37793 23.7882 0.37793 23.5589C0.37793 23.3297 0.564633 23.1438 0.794883 23.1438H1.50077V11.315H0.794883C0.564633 11.315 0.37793 11.1291 0.37793 10.8999C0.37793 10.6707 0.564633 10.4848 0.794883 10.4848H1.83049C1.85862 10.4788 1.88777 10.4755 1.91768 10.4755H15.3963C14.5334 9.92722 13.9593 8.96422 13.9593 7.86917V7.08763C13.9593 7.03302 13.9609 6.97583 13.9642 6.91288C13.9759 6.69144 14.1588 6.51772 14.3806 6.51772H19.7193C19.9411 6.51772 20.1241 6.69139 20.1356 6.91288C20.1391 6.98 20.1408 7.0355 20.1408 7.08758V7.86913C20.1408 8.96417 19.5666 9.92717 18.7037 10.4755H22.0942C22.1241 10.4755 22.1533 10.4788 22.1814 10.4848H23.2053C23.4356 10.4848 23.6223 10.6706 23.6223 10.8998C23.6223 11.129 23.4356 11.3149 23.2053 11.3149H22.5111V23.1438H23.2053C23.4356 23.1438 23.6223 23.3297 23.6223 23.5589ZM17.05 10.1228C18.2944 10.1228 19.307 9.11183 19.307 7.86922V7.35167H14.7933V7.86922C14.7932 9.11183 15.8056 10.1228 17.05 10.1228ZM2.33463 23.1438H21.6773V11.315H2.33463V23.1438Z" fill="black"/>
  </g>
  <defs>
  <clipPath id="clip0_1508_2890">
  <rect width="24" height="24" fill="white"/>
  </clipPath>
  </defs>
  </svg>
  