<?xml version="1.0" encoding="iso-8859-1"?>
<!-- Uploaded to: SVG Repo, www.svgrepo.com, Generator: SVG Repo Mixer Tools -->
<svg height="800px" width="800px" version="1.1" id="Layer_1" xmlns="http://www.w3.org/2000/svg" xmlns:xlink="http://www.w3.org/1999/xlink" 
	 viewBox="0 0 511.982 511.982" xml:space="preserve">
<path style="fill:#E6E9ED;" d="M490.674,305.567l-0.969,3.141H22.293l-0.984-3.172l-20.328,6.343l53.232,170.338
	c0.844,2.688,2.719,4.938,5.219,6.25c1.843,0.969,46.623,23.515,196.555,23.515c149.722,0,194.375-20.468,196.219-21.343
	c2.688-1.281,4.719-3.625,5.594-6.469l53.217-172.322L490.674,305.567z"/>
<path style="fill:#5D9CEC;" d="M500.829,308.708c0,23.514-109.62,42.576-244.842,42.576c-135.214,0-244.834-19.062-244.834-42.576
	c0-23.515,109.621-42.577,244.834-42.577C391.208,266.131,500.829,285.193,500.829,308.708z"/>
<path style="fill:#CCD1D9;" d="M255.987,361.939c-65.982,0-128.12-4.483-174.946-12.624c-23.249-4.047-41.655-8.828-54.701-14.188
	c-6.391-2.625-25.843-10.625-25.843-26.42c0-15.796,19.452-23.796,25.843-26.421c13.046-5.359,31.452-10.141,54.701-14.172
	c46.826-8.156,108.964-12.64,174.946-12.64c66.005,0,128.128,4.483,174.969,12.64c23.25,4.031,41.656,8.812,54.687,14.172
	c6.406,2.625,25.843,10.625,25.843,26.421c0,15.795-19.437,23.795-25.843,26.42c-13.03,5.359-31.437,10.141-54.687,14.188
	C384.115,357.456,321.992,361.939,255.987,361.939z M22.496,308.708c3.234,3.077,17.015,12.468,69.732,20.873
	c44.717,7.141,102.871,11.062,163.759,11.062c60.911,0,119.065-3.922,163.783-11.062c52.717-8.405,66.497-17.796,69.716-20.873
	c-3.219-3.062-16.999-12.468-69.716-20.874c-44.718-7.141-102.872-11.062-163.783-11.062c-60.888,0-119.042,3.922-163.759,11.062
	C39.511,296.24,25.73,305.645,22.496,308.708z"/>
<path style="fill:#4A89DC;" d="M405.021,319.347h-298.06c-5.891,0-10.656-4.766-10.656-10.64c0-5.875,4.765-10.64,10.656-10.64
	h298.06c5.906,0,10.655,4.765,10.655,10.64C415.677,314.582,410.928,319.347,405.021,319.347z"/>
<path style="fill:#A0D468;" d="M344.178,0.001h-37.093c0,28.17-22.905,51.092-51.1,51.092c-28.171,0-51.076-22.921-51.076-51.092
	h-37.108L44.324,70.544l35.28,97.028l48.639-17.64v158.932h255.498V149.932l48.653,17.64l35.281-97.028L344.178,0.001z"/>
<path style="fill:#8CC153;" d="M255.987,40.436c-22.296,0-40.436-18.14-40.436-40.436h-21.296c0,34.092,27.64,61.731,61.732,61.731
	c34.101,0,61.755-27.639,61.755-61.731h-21.312C296.43,22.297,278.307,40.436,255.987,40.436z"/>
</svg>