<svg width="24" height="24" viewBox="0 0 24 24" fill="none" xmlns="http://www.w3.org/2000/svg">
    <g clip-path="url(#clip0_1508_2876)">
    <path d="M21.9311 24H22.7587V21.5172H21.1035L21.9311 24Z" fill="#553323"/>
    <path d="M19.0346 0H5.79321V8.27586H19.0346V0Z" fill="#6B5B4B"/>
    <path d="M17.793 1.24138H7.03442V7.03448H17.793V1.24138Z" fill="#A1C8EC"/>
    <path d="M10.3447 4.9262C10.3447 4.9262 14.793 3.66372 17.793 3.72413V7.03448H10.3447V4.9262Z" fill="#23A24D"/>
    <path d="M22.5517 21.5172H1.44828C0.648414 21.5172 0 20.8688 0 20.069C0 19.2691 0.648414 18.6207 1.44828 18.6207H22.5517C23.3516 18.6207 24 19.2691 24 20.069C24 20.8688 23.3516 21.5172 22.5517 21.5172Z" fill="#B02721"/>
    <path d="M1.44828 18.6513H3.94676C4.06676 18.3894 4.13793 18.1002 4.13793 17.7931C4.13793 16.6506 3.21145 15.7242 2.06897 15.7242C0.926483 15.7242 0 16.6506 0 17.7931C0 18.2727 0.169655 18.7084 0.443586 19.0593C0.704276 18.8077 1.05766 18.6513 1.44828 18.6513Z" fill="#ED8A19"/>
    <path d="M0.443611 19.0593C0.432853 19.0452 0.424577 19.0287 0.413818 19.0142V19.0879C0.448991 19.0519 0.49037 19.0229 0.528853 18.991C0.500715 19.0146 0.46968 19.0341 0.443611 19.0593Z" fill="#DD352E"/>
    <path d="M21.9311 14.0996H12.8276C10.2757 14.0996 9.92651 13.3361 8.97106 12.2346C7.1272 10.1086 3.92237 9.65794 1.78803 11.4919C1.70113 11.5668 1.61878 11.6441 1.54099 11.7228C0.785405 12.4912 0.413818 13.5584 0.413818 14.6359V16.5629C0.790784 16.0564 1.38913 15.7241 2.06899 15.7241C3.21147 15.7241 4.13796 16.6506 4.13796 17.7931C4.13796 18.1001 4.06678 18.3894 3.94678 18.6513H1.4483H22.5517C23.3516 18.6513 24 19.2997 24 20.0996C24 19.1197 24 17.215 24 16.1686C24 15.0261 23.0735 14.0996 21.9311 14.0996Z" fill="#DD352E"/>
    <path d="M0.762272 18.8326C0.723375 18.8537 0.682824 18.8723 0.645996 18.8971C0.682824 18.8727 0.723375 18.8541 0.762272 18.8326Z" fill="#DD352E"/>
    <path d="M1.04606 18.7155C0.993511 18.7308 0.939717 18.744 0.889648 18.7651C0.939304 18.744 0.993097 18.7308 1.04606 18.7155Z" fill="#DD352E"/>
    <path d="M1.65527 21.5479V24H2.48286L3.30383 21.5479H1.65527Z" fill="#553323"/>
    <path d="M7.03442 3.72414C7.03442 3.72414 11.5431 4.92248 13.6551 7.03448H7.03442V3.72414Z" fill="#43B05C"/>
    </g>
    <defs>
    <clipPath id="clip0_1508_2876">
    <rect width="24" height="24" fill="white"/>
    </clipPath>
    </defs>
    </svg>
    