<svg width="24" height="24" viewBox="0 0 24 24" fill="none" xmlns="http://www.w3.org/2000/svg">
<g id="parking-circle">
<path id="secondary" d="M12 22.8C17.9647 22.8 22.8 17.9646 22.8 12C22.8 6.03528 17.9647 1.19995 12 1.19995C6.03534 1.19995 1.20001 6.03528 1.20001 12C1.20001 17.9646 6.03534 22.8 12 22.8Z" fill="#FF4B4B"/>
<path id="primary" d="M9.60004 13.2H13.8C14.5957 13.2 15.3587 12.8839 15.9214 12.3213C16.484 11.7587 16.8 10.9956 16.8 10.2C16.8 9.4043 16.484 8.64124 15.9214 8.07863C15.3587 7.51602 14.5957 7.19995 13.8 7.19995H9.60004V16.8" stroke="black" stroke-linecap="round" stroke-linejoin="round"/>
<path id="primary_2" d="M12 22.8C17.9647 22.8 22.8 17.9646 22.8 12C22.8 6.03528 17.9647 1.19995 12 1.19995C6.03534 1.19995 1.20001 6.03528 1.20001 12C1.20001 17.9646 6.03534 22.8 12 22.8Z" stroke="black" stroke-linecap="round" stroke-linejoin="round"/>
</g>
</svg>
