<?xml version="1.0" encoding="iso-8859-1"?>
<!-- Uploaded to: SVG Repo, www.svgrepo.com, Generator: SVG Repo Mixer Tools -->
<svg fill="#000000" height="800px" width="800px" version="1.1" id="Capa_1" xmlns="http://www.w3.org/2000/svg" xmlns:xlink="http://www.w3.org/1999/xlink" 
	 viewBox="0 0 60 60" xml:space="preserve">
<g>
	<path d="M43,14c-5.894,0-10.939,3.666-13,8.834C27.939,17.666,22.894,14,17,14C9.28,14,3,20.28,3,28v32h26h2h26V28
		C57,20.28,50.72,14,43,14z M29,58H5V28c0-6.617,5.383-12,12-12s12,5.383,12,12V58z M55,58H31V28c0-6.617,5.383-12,12-12
		s12,5.383,12,12V58z"/>
	<path d="M27,10h6.796l-5.549,6.341c-0.363,0.416-0.321,1.047,0.095,1.411C28.531,17.918,28.766,18,29,18
		c0.278,0,0.555-0.116,0.753-0.341l7-8c0.258-0.295,0.32-0.715,0.157-1.072C36.748,8.229,36.392,8,36,8h-7l4.8-6.4
		c0.332-0.442,0.242-1.069-0.2-1.4c-0.44-0.332-1.068-0.241-1.399,0.2l-6,8c-0.228,0.303-0.264,0.708-0.095,1.047
		C26.275,9.786,26.621,10,27,10z"/>
	<path d="M25,35H9c-0.553,0-1,0.448-1,1s0.447,1,1,1h16c0.553,0,1-0.448,1-1S25.553,35,25,35z"/>
	<path d="M25,39H9c-0.553,0-1,0.448-1,1s0.447,1,1,1h16c0.553,0,1-0.448,1-1S25.553,39,25,39z"/>
	<path d="M9,27c-0.553,0-1,0.448-1,1s0.447,1,1,1h16c0.553,0,1-0.448,1-1s-0.447-1-1-1H9z"/>
	<path d="M25,31H9c-0.553,0-1,0.448-1,1s0.447,1,1,1h16c0.553,0,1-0.448,1-1S25.553,31,25,31z"/>
	<path d="M35,27c-0.553,0-1,0.448-1,1s0.447,1,1,1h16c0.553,0,1-0.448,1-1s-0.447-1-1-1H35z"/>
	<path d="M51,31H35c-0.553,0-1,0.448-1,1s0.447,1,1,1h16c0.553,0,1-0.448,1-1S51.553,31,51,31z"/>
	<path d="M25,43H9c-0.553,0-1,0.448-1,1s0.447,1,1,1h16c0.553,0,1-0.448,1-1S25.553,43,25,43z"/>
	<path d="M25,47H9c-0.553,0-1,0.448-1,1s0.447,1,1,1h16c0.553,0,1-0.448,1-1S25.553,47,25,47z"/>
	<path d="M25,51H9c-0.553,0-1,0.448-1,1s0.447,1,1,1h16c0.553,0,1-0.448,1-1S25.553,51,25,51z"/>
	<path d="M51,35H35c-0.553,0-1,0.448-1,1s0.447,1,1,1h16c0.553,0,1-0.448,1-1S51.553,35,51,35z"/>
	<path d="M51,39H35c-0.553,0-1,0.448-1,1s0.447,1,1,1h16c0.553,0,1-0.448,1-1S51.553,39,51,39z"/>
	<path d="M51,43H35c-0.553,0-1,0.448-1,1s0.447,1,1,1h16c0.553,0,1-0.448,1-1S51.553,43,51,43z"/>
	<path d="M51,47H35c-0.553,0-1,0.448-1,1s0.447,1,1,1h16c0.553,0,1-0.448,1-1S51.553,47,51,47z"/>
	<path d="M51,51H35c-0.553,0-1,0.448-1,1s0.447,1,1,1h16c0.553,0,1-0.448,1-1S51.553,51,51,51z"/>
</g>
</svg>