<svg width="32" height="32" viewBox="0 0 32 32" fill="none" xmlns="http://www.w3.org/2000/svg">
	<g clip-path="url(#clip0_1676_949)">
	<path d="M26.6662 5.66614H5.33346L0.666504 24.3329L4.48388 23L8.33345 24.3329L12.1665 23L16.0003 24.3329L19.8333 23L23.6662 24.3329L27.5002 23L31.3332 24.3329L26.6662 5.66614Z" fill="#ED5564"/>
	<path d="M31.9795 24.1708L30.8135 19.5049L31.9795 24.1708Z" fill="#656D78"/>
	<path d="M31.9988 24.3183C32.0037 24.5078 31.9266 24.6933 31.783 24.8251C31.6014 24.9902 31.3455 25.0429 31.1141 24.9628L27.4999 23.7061L23.8856 24.9628C23.8846 24.9628 23.8846 24.9628 23.8837 24.9628C23.8769 24.9658 23.87 24.9667 23.8632 24.9696C23.8505 24.9735 23.8368 24.9775 23.8231 24.9804C23.8163 24.9823 23.8085 24.9833 23.8016 24.9853C23.7879 24.9882 23.7733 24.9901 23.7596 24.9921C23.7557 24.9931 23.7528 24.994 23.7489 24.994C23.743 24.995 23.7371 24.996 23.7313 24.996C23.7264 24.997 23.7206 24.997 23.7157 24.9979C23.6991 24.9989 23.6825 24.9998 23.6649 24.9998C23.6571 24.9998 23.6483 24.9988 23.6405 24.9988C23.6297 24.9978 23.619 24.9978 23.6092 24.9969C23.5975 24.9959 23.5858 24.994 23.5741 24.993C23.5673 24.992 23.5595 24.9911 23.5517 24.9891C23.5399 24.9872 23.5282 24.9853 23.5175 24.9823C23.5097 24.9804 23.5029 24.9794 23.496 24.9775C23.4843 24.9745 23.4736 24.9706 23.4619 24.9667C23.457 24.9657 23.4521 24.9648 23.4472 24.9628L19.833 23.7061L16.2188 24.9628C16.2159 24.9638 16.2129 24.9648 16.21 24.9658C16.2002 24.9687 16.1905 24.9716 16.1807 24.9746C16.1699 24.9775 16.1602 24.9795 16.1494 24.9824C16.1406 24.9843 16.1309 24.9863 16.122 24.9883C16.1094 24.9902 16.0976 24.9921 16.0849 24.9941C16.0771 24.9951 16.0693 24.9961 16.0615 24.9971C16.0205 25 15.9785 25 15.9375 24.9971C15.9297 24.9961 15.9219 24.9951 15.914 24.9941C15.9023 24.9922 15.8896 24.9903 15.8769 24.9883C15.8681 24.9863 15.8584 24.9844 15.8495 24.9824C15.8388 24.9795 15.829 24.9775 15.8183 24.9746C15.8085 24.9716 15.7988 24.9687 15.789 24.9658C15.787 24.9648 15.7831 24.9638 15.7802 24.9628L12.166 23.7061L8.55173 24.9628C8.54685 24.9648 8.54198 24.9658 8.5371 24.9677C8.52535 24.9706 8.51466 24.9745 8.50391 24.9775C8.4971 24.9794 8.48929 24.9804 8.48241 24.9823C8.47066 24.9853 8.45898 24.9872 8.44729 24.9891C8.44048 24.9911 8.43266 24.9921 8.42579 24.993C8.41404 24.994 8.40235 24.996 8.39066 24.9969C8.38091 24.9979 8.37016 24.9979 8.36041 24.9988C8.3516 24.9988 8.34285 24.9998 8.33404 24.9998C8.31741 24.9998 8.30085 24.9988 8.28329 24.9979C8.27841 24.9969 8.27354 24.9969 8.26866 24.996C8.26278 24.996 8.25691 24.995 8.2501 24.994C8.24716 24.994 8.24328 24.993 8.23935 24.9921C8.22566 24.9901 8.21197 24.9882 8.19835 24.9853C8.19053 24.9833 8.18372 24.9823 8.17591 24.9804C8.16222 24.9775 8.14853 24.9736 8.13491 24.9686C8.12903 24.9667 8.12222 24.9657 8.11635 24.9628C8.11535 24.9628 8.11535 24.9628 8.11535 24.9628L4.48453 23.7061L0.885905 24.9628C0.814591 24.9872 0.740402 24.9999 0.666151 24.9999C0.503086 24.9999 0.341958 24.9393 0.216956 24.8251C0.0733905 24.6942 -0.00373583 24.5087 0.000139236 24.3183C0.000139236 24.3231 0.000139236 24.328 0.000139236 24.3329V26.3329C0.000139236 26.5487 0.104641 26.7518 0.280394 26.8768C0.457147 27.0018 0.682714 27.033 0.885842 26.9627L4.48447 25.706L8.11528 26.9627C8.25691 27.0115 8.41016 27.0115 8.55179 26.9627L12.166 25.706L15.7802 26.9627C15.9228 27.0115 16.0771 27.0115 16.2187 26.9627L19.8329 25.706L23.4471 26.9627C23.5887 27.0115 23.7429 27.0115 23.8856 26.9627L27.4998 25.706L31.114 26.9627C31.1853 26.9872 31.2595 26.9999 31.3328 26.9999C31.4695 26.9999 31.6052 26.9579 31.7185 26.8759C31.8953 26.7509 31.9998 26.5487 31.9998 26.3329V24.3329C31.9998 24.3281 31.9988 24.3232 31.9988 24.3183Z" fill="#656D78"/>
	<path d="M31.9795 24.1708C31.9834 24.1854 31.9863 24.1991 31.9892 24.2138C31.9863 24.1992 31.9834 24.1855 31.9795 24.1708Z" fill="#656D78"/>
	<path d="M31.999 24.2987C31.998 24.2909 31.9971 24.2821 31.9971 24.2743C31.9971 24.2822 31.9981 24.2909 31.999 24.2987Z" fill="#656D78"/>
	<path d="M31.9951 24.2567C31.9941 24.247 31.9921 24.2381 31.9912 24.2284C31.9921 24.2382 31.9941 24.247 31.9951 24.2567Z" fill="#656D78"/>
	<path d="M0.00390625 24.2567C0.00490627 24.247 0.0068438 24.2381 0.00778132 24.2284C0.0068438 24.2382 0.00484377 24.247 0.00390625 24.2567Z" fill="#656D78"/>
	<path d="M0.000976562 24.2987C0.000976562 24.2909 0.00197658 24.2821 0.0029141 24.2743C0.00197658 24.2822 0.000976562 24.2909 0.000976562 24.2987Z" fill="#656D78"/>
	<path d="M31.9796 24.1708L30.3115 17.5C30.3115 17.499 30.3115 17.499 30.3115 17.4981L27.3136 5.50501C27.2394 5.20813 26.9728 5.00012 26.6662 5.00012H5.33335C5.02766 5.00012 4.76109 5.20813 4.6869 5.50501L1.68791 17.4981C1.68791 17.4991 1.68791 17.4991 1.68791 17.5L0.0199447 24.1708C-0.0396188 24.409 0.03657 24.66 0.217198 24.8251C0.3422 24.9393 0.503328 24.9999 0.666394 24.9999C0.740645 24.9999 0.814834 24.9872 0.886147 24.9628L4.48477 23.7061L8.11559 24.9628C8.11559 24.9628 8.11559 24.9628 8.11659 24.9628C8.12246 24.9657 8.12927 24.9667 8.13515 24.9687C8.14884 24.9735 8.16252 24.9775 8.17615 24.9804C8.18396 24.9823 8.19078 24.9833 8.19859 24.9853C8.21228 24.9882 8.22596 24.9902 8.23959 24.9921C8.24346 24.9931 8.2474 24.994 8.25034 24.994C8.25715 24.995 8.26303 24.996 8.2689 24.996C8.27378 24.997 8.27865 24.997 8.28353 24.9979C8.30109 24.9989 8.31771 24.9998 8.33428 24.9998C8.34309 24.9998 8.35184 24.9988 8.36065 24.9988C8.3704 24.9978 8.38115 24.9978 8.3909 24.9969C8.40265 24.9959 8.41434 24.994 8.42603 24.993C8.43284 24.992 8.44065 24.9911 8.44753 24.9892C8.45928 24.9872 8.47097 24.9853 8.48266 24.9823C8.48947 24.9804 8.49728 24.9794 8.50416 24.9775C8.51491 24.9745 8.52566 24.9707 8.53734 24.9677C8.54222 24.9658 8.54709 24.9648 8.55197 24.9628L12.1662 23.7061L15.7804 24.9628C15.7833 24.9638 15.7872 24.9648 15.7892 24.9658C15.799 24.9687 15.8087 24.9717 15.8185 24.9746C15.8293 24.9775 15.839 24.9795 15.8498 24.9824C15.8586 24.9843 15.8683 24.9863 15.8772 24.9883C15.8898 24.9902 15.9025 24.9922 15.9143 24.9942C15.9221 24.9952 15.9299 24.9961 15.9377 24.9971C15.9787 25 16.0207 25 16.0617 24.9971C16.0695 24.9961 16.0774 24.9952 16.0852 24.9942C16.0979 24.9922 16.1096 24.9903 16.1223 24.9883C16.1311 24.9863 16.1409 24.9844 16.1497 24.9824C16.1604 24.9795 16.1702 24.9775 16.1809 24.9746C16.1907 24.9717 16.2004 24.9687 16.2102 24.9658C16.2132 24.9648 16.2161 24.9638 16.219 24.9628L19.8332 23.7061L23.4475 24.9628C23.4524 24.9648 23.4572 24.9658 23.4621 24.9667C23.4739 24.9706 23.4845 24.9745 23.4962 24.9775C23.503 24.9794 23.5099 24.9804 23.5177 24.9823C23.5285 24.9853 23.5402 24.9872 23.5519 24.9892C23.5597 24.9911 23.5675 24.9921 23.5744 24.993C23.5861 24.994 23.5978 24.996 23.6095 24.9969C23.6192 24.9979 23.63 24.9979 23.6407 24.9988C23.6485 24.9988 23.6574 24.9998 23.6652 24.9998C23.6827 24.9998 23.6994 24.9988 23.7159 24.9979C23.7208 24.9969 23.7267 24.9969 23.7315 24.996C23.7374 24.996 23.7433 24.995 23.7491 24.994C23.753 24.994 23.7559 24.993 23.7599 24.9921C23.7736 24.9902 23.7882 24.9882 23.8019 24.9853C23.8087 24.9833 23.8165 24.9823 23.8234 24.9804C23.837 24.9775 23.8507 24.9736 23.8634 24.9697C23.8702 24.9667 23.8771 24.9658 23.8839 24.9628C23.8849 24.9628 23.8849 24.9628 23.8859 24.9628L27.5001 23.7061L31.1143 24.9628C31.3457 25.0429 31.6016 24.9902 31.7833 24.8252C31.9639 24.6601 32.0391 24.4091 31.9796 24.1708ZM4.39196 12.1797L6.90363 11.3175L9.18879 12.1182L8.60678 16.7676L5.92811 15.8439C5.78555 15.7941 5.63123 15.7951 5.48867 15.8449L3.28063 16.625L4.39196 12.1797ZM15.3333 6.33308V10.7286L13.1878 9.98246C13.0462 9.93365 12.8929 9.93265 12.7513 9.98146L10.7113 10.6865L11.2553 6.33302L15.3333 6.33308ZM20.7443 6.33308L21.2893 10.6866L19.2492 9.98152C19.1075 9.93271 18.9533 9.93365 18.8116 9.98252L16.6662 10.7287V6.33315L20.7443 6.33308ZM10.5267 12.1612L12.968 11.3175L15.3333 12.1407V16.7285L12.7894 15.8438C12.6468 15.794 12.4925 15.794 12.3499 15.8448L9.96131 16.6817L10.5267 12.1612ZM16.6662 12.1407L19.0314 11.3175L21.4728 12.1612L22.0383 16.6797L19.6495 15.8438C19.507 15.794 19.3527 15.794 19.2101 15.8438L16.6662 16.7285V12.1407ZM22.8117 12.1182L25.0958 11.3175L27.6076 12.1797L28.7188 16.625L26.5108 15.8448C26.3683 15.795 26.213 15.7941 26.0704 15.8438L23.3927 16.7696L22.8117 12.1182ZM27.2218 10.6378L25.3096 9.98152C25.168 9.93271 25.0147 9.93365 24.8731 9.98252L22.6427 10.7648L22.0881 6.33315H26.1456L27.2218 10.6378ZM5.85386 6.33308H9.91143L9.35773 10.7647L7.12626 9.98246C6.98563 9.93365 6.83138 9.93265 6.68975 9.98146L4.77765 10.6377L5.85386 6.33308ZM4.48377 22.333C4.40958 22.333 4.33533 22.3457 4.26408 22.3701L1.61272 23.2959L2.893 18.1758L5.71329 17.1796L8.43784 18.1201L7.77377 23.4336L4.70246 22.3701C4.63121 22.3457 4.55796 22.333 4.48377 22.333ZM11.9476 22.3701L9.12829 23.3506L9.77674 18.1592L12.5707 17.1797L15.3333 18.1407V23.3955L12.3861 22.3701C12.2435 22.3203 12.0892 22.3203 11.9476 22.3701ZM19.6144 22.3701L16.6662 23.3955V18.1407L19.4288 17.1797L22.2228 18.1563L22.8722 23.3506L20.0519 22.3701C19.9103 22.3203 19.756 22.3203 19.6144 22.3701ZM27.7189 22.3701C27.5772 22.3203 27.423 22.3203 27.2804 22.3701L24.2257 23.4326L23.5616 18.1221L26.2862 17.1797L29.1065 18.1759L30.3867 23.2979L27.7189 22.3701Z" fill="#DA4453"/>
	</g>
	<defs>
	<clipPath id="clip0_1676_949">
	<rect width="32" height="32" fill="white"/>
	</clipPath>
	</defs>
	</svg>
	