<svg width="32" height="32" viewBox="0 0 32 32" fill="none" xmlns="http://www.w3.org/2000/svg">
	<path d="M6.66683 24C6.31321 24 5.97407 23.8595 5.72402 23.6095C5.47397 23.3594 5.3335 23.0203 5.3335 22.6667V11.4933C5.3335 11.1397 5.47397 10.8006 5.72402 10.5505C5.97407 10.3005 6.31321 10.16 6.66683 10.16C7.02045 10.16 7.35959 10.3005 7.60964 10.5505C7.85969 10.8006 8.00016 11.1397 8.00016 11.4933V22.6667C8.00016 23.0203 7.85969 23.3594 7.60964 23.6095C7.35959 23.8595 7.02045 24 6.66683 24ZM26.6668 14.6667V4.50667C26.6668 4.15305 26.5264 3.81391 26.2763 3.56386C26.0263 3.31382 25.6871 3.17334 25.3335 3.17334C24.9799 3.17334 24.6407 3.31382 24.3907 3.56386C24.1406 3.81391 24.0002 4.15305 24.0002 4.50667V14.6667C24.0002 15.0203 24.1406 15.3594 24.3907 15.6095C24.6407 15.8595 24.9799 16 25.3335 16C25.6871 16 26.0263 15.8595 26.2763 15.6095C26.5264 15.3594 26.6668 15.0203 26.6668 14.6667Z" fill="#D68B52"/>
	<path d="M5.33353 13.3333C5.01893 13.3361 4.71347 13.2276 4.47117 13.0269C4.22887 12.8263 4.06533 12.5464 4.00947 12.2368C3.95361 11.9272 4.00903 11.6078 4.16594 11.3351C4.32284 11.0624 4.57112 10.854 4.86686 10.7467L26.2002 2.74666C26.3648 2.68537 26.5398 2.65711 26.7154 2.66348C26.8909 2.66984 27.0634 2.71072 27.2231 2.78377C27.3828 2.85682 27.5266 2.96061 27.6462 3.08922C27.7658 3.21783 27.8589 3.36873 27.9202 3.53332C27.9815 3.69792 28.0097 3.87296 28.0034 4.04848C27.997 4.22399 27.9561 4.39653 27.8831 4.55625C27.81 4.71597 27.7062 4.85973 27.5776 4.97934C27.449 5.09894 27.2981 5.19204 27.1335 5.25332L5.8002 13.2533C5.65066 13.3076 5.49261 13.3347 5.33353 13.3333ZM26.6669 13.3333H21.3335C20.9799 13.3333 20.6408 13.4738 20.3907 13.7238C20.1407 13.9739 20.0002 14.313 20.0002 14.6667V16H16.0002C15.6466 16 15.3074 16.1405 15.0574 16.3905C14.8073 16.6406 14.6669 16.9797 14.6669 17.3333V18.6667H10.6669C10.3132 18.6667 9.9741 18.8071 9.72406 19.0572C9.47401 19.3072 9.33353 19.6464 9.33353 20V21.3333H5.33353C4.97991 21.3333 4.64077 21.4738 4.39072 21.7238C4.14067 21.9739 4.0002 22.313 4.0002 22.6667V28C4.0002 28.3536 4.14067 28.6928 4.39072 28.9428C4.64077 29.1929 4.97991 29.3333 5.33353 29.3333H26.6669C27.0205 29.3333 27.3596 29.1929 27.6097 28.9428C27.8597 28.6928 28.0002 28.3536 28.0002 28V14.6667C28.0002 14.313 27.8597 13.9739 27.6097 13.7238C27.3596 13.4738 27.0205 13.3333 26.6669 13.3333Z" fill="#656D78"/>
	<path d="M27.9998 29.3333H3.99984C3.64622 29.3333 3.30708 29.1928 3.05703 28.9428C2.80698 28.6927 2.6665 28.3536 2.6665 28C2.6665 27.6463 2.80698 27.3072 3.05703 27.0571C3.30708 26.8071 3.64622 26.6666 3.99984 26.6666H27.9998C28.3535 26.6666 28.6926 26.8071 28.9426 27.0571C29.1927 27.3072 29.3332 27.6463 29.3332 28C29.3332 28.3536 29.1927 28.6927 28.9426 28.9428C28.6926 29.1928 28.3535 29.3333 27.9998 29.3333Z" fill="#D68B52"/>
	</svg>
	