<?xml version="1.0" encoding="utf-8"?>

<!-- Uploaded to: SVG Repo, www.svgrepo.com, Generator: SVG Repo Mixer Tools -->
<svg version="1.1" id="Icons" xmlns="http://www.w3.org/2000/svg" xmlns:xlink="http://www.w3.org/1999/xlink" 
	 viewBox="0 0 32 32" xml:space="preserve">
<style type="text/css">
	.st0{fill:none;stroke:#000000;stroke-width:2;stroke-linecap:round;stroke-linejoin:round;stroke-miterlimit:10;}
	
		.st1{fill:none;stroke:#000000;stroke-width:2;stroke-linecap:round;stroke-linejoin:round;stroke-miterlimit:10;stroke-dasharray:3;}
	.st2{fill:none;stroke:#000000;stroke-width:2;stroke-linejoin:round;stroke-miterlimit:10;}
	.st3{fill:none;}
</style>
<polyline class="st0" points="19,28 5,28 5,17 "/>
<line class="st0" x1="13" y1="17" x2="13" y2="28"/>
<circle class="st0" cx="23" cy="23" r="6"/>
<polyline class="st0" points="23,20 23,23 25,22 "/>
<polygon class="st0" points="28,12 4,12 7,5 25,5 "/>
<path class="st0" d="M16,18L16,18c-2.2,0-4-1.8-4-4v-2h8v2C20,16.2,18.2,18,16,18z"/>
<path class="st0" d="M8,18L8,18c-2.2,0-4-1.8-4-4v-2h8v2C12,16.2,10.2,18,8,18z"/>
<path class="st0" d="M21.6,17.2c-1-0.7-1.6-1.9-1.6-3.2v-2h8v2c0,1.6-1,3-2.3,3.6"/>
<line class="st0" x1="10" y1="23" x2="10" y2="23"/>
<rect x="-504" y="-576" class="st3" width="536" height="680"/>
</svg>