<svg width="32" height="32" viewBox="0 0 32 32" fill="none" xmlns="http://www.w3.org/2000/svg">
    <path d="M2.89258 2.85999H29.1176V29.085H2.89258V2.85999Z" fill="url(#paint0_radial_1676_1257)"/>
    <path d="M22.7373 2.85999L2.88232 12.5475L2.90482 24.0125L25.2298 2.85999H22.7373Z" fill="url(#paint1_linear_1676_1257)"/>
    <path d="M26.3902 2.85999L6.36523 29.135L18.6002 29.085L29.1177 4.97999V2.85999H26.3902Z" fill="url(#paint2_linear_1676_1257)"/>
    <path d="M2.90258 23.3125L24.5001 2.85999H27.3076L5.50008 29.14L2.89258 29.085L2.90258 23.3125Z" fill="url(#paint3_linear_1676_1257)"/>
    <path d="M1 1.8825V30.115C1 30.3491 1.09298 30.5735 1.25848 30.739C1.42398 30.9045 1.64845 30.9975 1.8825 30.9975H30.115C30.3491 30.9975 30.5735 30.9045 30.739 30.739C30.9045 30.5735 30.9975 30.3491 30.9975 30.115V1.8825C30.9975 1.64845 30.9045 1.42398 30.739 1.25848C30.5735 1.09298 30.3491 1 30.115 1H1.8825C1.64845 1 1.42398 1.09298 1.25848 1.25848C1.09298 1.42398 1 1.64845 1 1.8825ZM14.5025 15.0475H4.285C3.9975 15.0475 3.765 14.815 3.765 14.5275V4.14C3.765 3.8525 3.9975 3.62 4.285 3.62H14.5025C14.79 3.62 15.0225 3.8525 15.0225 4.14V14.53C15.0225 14.815 14.79 15.0475 14.5025 15.0475ZM27.6925 15.0475H17.475C17.1875 15.0475 16.955 14.815 16.955 14.5275V4.14C16.955 3.8525 17.1875 3.62 17.475 3.62H27.6925C27.98 3.62 28.2125 3.8525 28.2125 4.14V14.53C28.2125 14.815 27.98 15.0475 27.6925 15.0475ZM14.5025 28.3825H4.285C3.9975 28.3825 3.765 28.15 3.765 27.8625V17.4725C3.765 17.185 3.9975 16.9525 4.285 16.9525H14.5025C14.79 16.9525 15.0225 17.185 15.0225 17.4725V27.8625C15.0225 28.15 14.79 28.3825 14.5025 28.3825ZM27.6925 28.3825H17.475C17.1875 28.3825 16.955 28.15 16.955 27.8625V17.4725C16.955 17.185 17.1875 16.9525 17.475 16.9525H27.6925C27.98 16.9525 28.2125 17.185 28.2125 17.4725V27.8625C28.2125 28.15 27.98 28.3825 27.6925 28.3825Z" fill="#D68B52"/>
    <path d="M17.2872 14.6575V4.47249L16.4922 3.42749V15.4525H28.5172L27.4747 14.66L17.2872 14.6575Z" fill="#FFCCBC"/>
    <path d="M16.4922 3.42749V6.04249L17.2872 5.24499V4.47249H27.4747V14.66L28.5172 15.4525V3.42749H16.4922Z" fill="#B25B47"/>
    <path d="M16.4922 5.69996V9.52246L17.2872 8.72746V4.89746L16.4922 5.69996Z" fill="url(#paint4_linear_1676_1257)"/>
    <path d="M4.52492 4.47249H14.7124V14.66H4.52492V4.47249ZM3.48242 3.42749V15.4525H15.5074V3.42749H3.48242Z" fill="#FFCCBC"/>
    <path d="M3.48242 3.42749V7.92249L4.52492 7.12999V4.49249L4.53492 4.47249H14.7124V14.66L15.5074 15.4525V3.42749H3.48242Z" fill="#B25B47"/>
    <path d="M3.48242 7.60255V11.425L4.52492 10.63V6.80005L3.48242 7.60255Z" fill="url(#paint5_linear_1676_1257)"/>
    <path d="M27.4747 27.5275H17.2872V17.34H27.4747V27.5275ZM28.5172 28.5725V16.5475H16.4922V28.5725H28.5172Z" fill="#FFCCBC"/>
    <path d="M16.5097 16.5475H16.4922V18.5725H17.2872V17.34H27.4747V27.5075L28.5172 28.55V16.5475H16.5097Z" fill="#B25B47"/>
    <path d="M16.4922 18.4425V23.0675L17.2872 22.27V18.4425H16.4922Z" fill="url(#paint6_linear_1676_1257)"/>
    <path d="M14.7124 21.0925V27.5275L4.52492 27.5075V17.34H14.6974L15.4899 16.5475H3.48242V28.55L15.5074 28.525V20.2725L14.7124 21.0925Z" fill="#FFCCBC"/>
    <path d="M15.4899 16.5475H3.48242V20.755L4.52492 20.7475V17.34H14.7124V20.2325H15.5074V16.5475H15.4899Z" fill="#B25B47"/>
    <path d="M14.7124 20.1224V24.7474L15.5074 23.9499V20.1224H14.7124Z" fill="url(#paint7_linear_1676_1257)"/>
    <path d="M3.48242 20.6375V25.2649L4.52492 24.4675V20.6375H3.48242Z" fill="url(#paint8_linear_1676_1257)"/>
    <defs>
    <radialGradient id="paint0_radial_1676_1257" cx="0" cy="0" r="1" gradientUnits="userSpaceOnUse" gradientTransform="translate(20.9913 5.23374) scale(26.1328 26.1327)">
    <stop offset="0.244" stop-color="#E1F5FE"/>
    <stop offset="0.402" stop-color="#CFEEFC"/>
    <stop offset="0.716" stop-color="#A0DDF8"/>
    <stop offset="0.957" stop-color="#78CEF5"/>
    </radialGradient>
    <linearGradient id="paint1_linear_1676_1257" x1="13.5811" y1="11.5607" x2="12.2178" y2="6.30549" gradientUnits="userSpaceOnUse">
    <stop offset="0.113" stop-color="white" stop-opacity="0"/>
    <stop offset="0.868" stop-color="white"/>
    </linearGradient>
    <linearGradient id="paint2_linear_1676_1257" x1="20.8675" y1="19.2587" x2="14.667" y2="12.7885" gradientUnits="userSpaceOnUse">
    <stop offset="0.113" stop-color="white" stop-opacity="0"/>
    <stop offset="0.868" stop-color="white"/>
    </linearGradient>
    <linearGradient id="paint3_linear_1676_1257" x1="15.9756" y1="17.1545" x2="11.0511" y2="10.503" gradientUnits="userSpaceOnUse">
    <stop offset="0.229" stop-color="white" stop-opacity="0"/>
    <stop offset="0.719" stop-color="white"/>
    </linearGradient>
    <linearGradient id="paint4_linear_1676_1257" x1="16.4479" y1="6.76746" x2="17.5319" y2="7.85146" gradientUnits="userSpaceOnUse">
    <stop stop-color="#B25B47"/>
    <stop offset="1" stop-color="#B25B47" stop-opacity="0"/>
    </linearGradient>
    <linearGradient id="paint5_linear_1676_1257" x1="3.53492" y1="8.6443" x2="4.68642" y2="9.79605" gradientUnits="userSpaceOnUse">
    <stop stop-color="#B25B47"/>
    <stop offset="1" stop-color="#B25B47" stop-opacity="0"/>
    </linearGradient>
    <linearGradient id="paint6_linear_1676_1257" x1="16.1579" y1="20.022" x2="17.4664" y2="21.3305" gradientUnits="userSpaceOnUse">
    <stop stop-color="#B25B47"/>
    <stop offset="1" stop-color="#B25B47" stop-opacity="0"/>
    </linearGradient>
    <linearGradient id="paint7_linear_1676_1257" x1="14.3777" y1="21.7022" x2="15.6862" y2="23.0107" gradientUnits="userSpaceOnUse">
    <stop stop-color="#B25B47"/>
    <stop offset="1" stop-color="#B25B47" stop-opacity="0"/>
    </linearGradient>
    <linearGradient id="paint8_linear_1676_1257" x1="3.24192" y1="22.1902" x2="4.62017" y2="23.5685" gradientUnits="userSpaceOnUse">
    <stop stop-color="#B25B47"/>
    <stop offset="1" stop-color="#B25B47" stop-opacity="0"/>
    </linearGradient>
    </defs>
    </svg>
    